0
SECTION
2
HEADER
0
ENDSEC
0
SECTION
2
TABLES
0
TABLE
2
LTYPE
70
2
0
LTYPE
2
CONTINUOUS
70
0
3
Solid line
72
65
73
0
40
0.0
0
LTYPE
2
DASHED
70
0
3
Dashed __ __
72
65
73
2
40
12.0
49
6.0
49
-6.0
0
ENDTAB
0
ENDSEC
0
SECTION
2
ENTITIES
0
LINE
8
0
62
7
10
100
20
100
11
17900
21
100
0
LINE
8
0
62
7
10
17900
20
100
11
17900
21
10900
0
LINE
8
0
62
7
10
17900
20
10900
11
100
21
10900
0
LINE
8
0
62
7
10
100
20
10900
11
100
21
100
0
TEXT
8
0
62
7
10
6500
20
10870
40
42
1
SingleLineIQ Synthetic Electrical Single-Line Diagram
0
TEXT
8
0
62
2
10
5900
20
10810
40
24
1
Panel-centric layout with vertical outgoing feeders - synthetic anonymized demo
0
LINE
8
0
62
7
10
8960
20
10210
11
9040
21
10210
0
LINE
8
0
62
7
10
9040
20
10210
11
9040
21
10290
0
LINE
8
0
62
7
10
9040
20
10290
11
8960
21
10290
0
LINE
8
0
62
7
10
8960
20
10290
11
8960
21
10210
0
LINE
8
0
62
7
10
8960
20
10210
11
8960
21
10290
0
LINE
8
0
62
7
10
8960
20
10210
11
9040
21
10210
0
LINE
8
0
62
7
10
8960
20
10230
11
8980
21
10290
0
LINE
8
0
62
7
10
8980
20
10210
11
9040
21
10230
0
LINE
8
0
62
7
10
8960
20
10250
11
9000
21
10290
0
LINE
8
0
62
7
10
9000
20
10210
11
9040
21
10250
0
LINE
8
0
62
7
10
8960
20
10270
11
9020
21
10290
0
LINE
8
0
62
7
10
9020
20
10210
11
9040
21
10270
0
LINE
8
0
62
7
10
8960
20
10290
11
9040
21
10290
0
LINE
8
0
62
7
10
9040
20
10210
11
9040
21
10290
0
TEXT
8
0
62
7
10
9060
20
10265
40
32
1
UTILITY GRID
0
TEXT
8
0
62
7
10
9060
20
10230
40
28
1
33 kV
0
LINE
8
0
62
7
10
9000
20
10210
11
9000
21
9950
0
LINE
8
0
62
3
10
7800
20
9400
11
10200
21
9400
0
LINE
8
0
62
3
10
10200
20
9400
11
10200
21
9660
0
LINE
8
0
62
3
10
10200
20
9660
11
7800
21
9660
0
LINE
8
0
62
3
10
7800
20
9660
11
7800
21
9400
0
TEXT
8
0
62
3
10
7820
20
9625
40
26
1
KPL2-MAIN-3300-SWGR01
0
TEXT
8
0
62
3
10
7820
20
9595
40
22
1
MAIN INCOMING SWITCHGEAR
0
TEXT
8
0
62
3
10
7820
20
9565
40
20
1
33 kV / CAP 8000 kW
0
LINE
8
0
62
5
10
7880
20
9520
11
10120
21
9520
0
LINE
8
0
62
7
10
9000
20
9950
11
9000
21
9520
0
LINE
8
0
62
7
10
9000
20
9400
11
9000
21
9120
0
CIRCLE
8
0
62
4
10
9000
20
9065
40
28
0
CIRCLE
8
0
62
4
10
9000
20
9025
40
28
0
LINE
8
0
62
7
10
9000
20
9130
11
9000
21
9093
0
LINE
8
0
62
7
10
9000
20
8997
11
9000
21
8930
0
TEXT
8
0
62
7
10
9045
20
9085
40
30
1
KPL2-MAIN-3300-TR00
0
TEXT
8
0
62
7
10
9045
20
9050
40
24
1
33 / 6.6 kV
0
TEXT
8
0
62
7
10
9045
20
9020
40
24
1
6300 kVA
0
LINE
8
0
62
7
10
9000
20
8930
11
9000
21
8560
0
LINE
8
0
62
3
10
6000
20
8200
11
12000
21
8200
0
LINE
8
0
62
3
10
12000
20
8200
11
12000
21
8500
0
LINE
8
0
62
3
10
12000
20
8500
11
6000
21
8500
0
LINE
8
0
62
3
10
6000
20
8500
11
6000
21
8200
0
TEXT
8
0
62
3
10
6020
20
8455
40
26
1
KPL2-MAIN-6600-MVDB01
0
TEXT
8
0
62
3
10
6020
20
8425
40
22
1
MAIN MV DISTRIBUTION BOARD
0
TEXT
8
0
62
3
10
6020
20
8395
40
20
1
6.6 kV / CAP 6000 kW
0
LINE
8
0
62
5
10
6100
20
8340
11
11900
21
8340
0
LINE
8
0
62
7
10
9000
20
8560
11
9000
21
8340
0
TEXT
8
0
62
7
10
3000
20
7800
40
34
1
AREA A10
0
LINE
8
0
62
7
10
7200
20
8340
11
7200
21
7600
0
CIRCLE
8
0
62
4
10
7200
20
7515
40
28
0
CIRCLE
8
0
62
4
10
7200
20
7475
40
28
0
LINE
8
0
62
7
10
7200
20
7580
11
7200
21
7543
0
LINE
8
0
62
7
10
7200
20
7447
11
7200
21
7380
0
TEXT
8
0
62
7
10
7245
20
7535
40
30
1
KPL2-A10-410-TR01
0
TEXT
8
0
62
7
10
7245
20
7500
40
24
1
6.6 / 0.4 kV
0
TEXT
8
0
62
7
10
7245
20
7470
40
24
1
1250 kVA
0
LINE
8
0
62
7
10
7200
20
7380
11
7200
21
7100
0
LINE
8
0
62
3
10
1500
20
6600
11
4100
21
6600
0
LINE
8
0
62
3
10
4100
20
6600
11
4100
21
6900
0
LINE
8
0
62
3
10
4100
20
6900
11
1500
21
6900
0
LINE
8
0
62
3
10
1500
20
6900
11
1500
21
6600
0
TEXT
8
0
62
3
10
1520
20
6855
40
26
1
KPL2-A10-410-LV01-SWBD01
0
TEXT
8
0
62
3
10
1520
20
6825
40
22
1
LV SWITCHBOARD
0
TEXT
8
0
62
3
10
1520
20
6795
40
20
1
0.4 kV / CAP 1200 kW / LOAD 1320 kW
0
LINE
8
0
62
5
10
1580
20
6750
11
4020
21
6750
0
LINE
8
0
62
7
10
7200
20
7100
11
7200
21
6750
0
LINE
8
0
62
3
10
1200
20
5200
11
5070
21
5200
0
LINE
8
0
62
3
10
5070
20
5200
11
5070
21
5500
0
LINE
8
0
62
3
10
5070
20
5500
11
1200
21
5500
0
LINE
8
0
62
3
10
1200
20
5500
11
1200
21
5200
0
TEXT
8
0
62
3
10
1220
20
5465
40
26
1
KPL2-A10-410-LV01-MCC01
0
TEXT
8
0
62
3
10
1220
20
5432
40
22
1
MCC
0
TEXT
8
0
62
3
10
1220
20
5402
40
20
1
0.4 kV / CAP 520 kW / LOAD 434.8 kW
0
LINE
8
0
62
5
10
1270
20
5370
11
5000
21
5370
0
LINE
8
0
62
2
10
1342.0
20
5352
11
1358.0
21
5372
0
LINE
8
0
62
2
10
1350.0
20
5370
11
1350.0
21
5180
0
CIRCLE
8
0
62
2
10
1350.0
20
5135
40
22
0
TEXT
8
0
62
2
10
1338.0
20
5127
40
18
1
P
0
LINE
8
0
62
2
10
1330.0
20
5171
11
1370.0
21
5171
0
LINE
8
0
62
2
10
1370.0
20
5171
11
1370.0
21
5193
0
LINE
8
0
62
2
10
1370.0
20
5193
11
1330.0
21
5193
0
LINE
8
0
62
2
10
1330.0
20
5193
11
1330.0
21
5171
0
TEXT
8
0
62
2
10
1337.0
20
5177
40
14
1
VSD
0
TEXT
8
0
62
2
10
1322.0
20
5083
40
18
1
PP001
0
TEXT
8
0
62
2
10
1328.0
20
5057
40
16
1
1.5
0
LINE
8
0
62
2
10
1512.0
20
5352
11
1528.0
21
5372
0
LINE
8
0
62
2
10
1520.0
20
5370
11
1520.0
21
5180
0
CIRCLE
8
0
62
2
10
1520.0
20
5135
40
22
0
TEXT
8
0
62
2
10
1508.0
20
5127
40
18
1
F
0
TEXT
8
0
62
2
10
1492.0
20
5083
40
18
1
FN001
0
TEXT
8
0
62
2
10
1498.0
20
5057
40
16
1
2.2
0
LINE
8
0
62
2
10
1682.0
20
5352
11
1698.0
21
5372
0
LINE
8
0
62
2
10
1690.0
20
5370
11
1690.0
21
5180
0
CIRCLE
8
0
62
2
10
1690.0
20
5135
40
22
0
TEXT
8
0
62
2
10
1678.0
20
5127
40
18
1
F
0
TEXT
8
0
62
2
10
1662.0
20
5083
40
18
1
FN002
0
TEXT
8
0
62
2
10
1668.0
20
5057
40
16
1
22
0
LINE
8
0
62
2
10
1852.0
20
5352
11
1868.0
21
5372
0
LINE
8
0
62
2
10
1860.0
20
5370
11
1860.0
21
5180
0
CIRCLE
8
0
62
2
10
1860.0
20
5135
40
22
0
TEXT
8
0
62
2
10
1848.0
20
5127
40
18
1
C
0
LINE
8
0
62
2
10
1840.0
20
5171
11
1880.0
21
5171
0
LINE
8
0
62
2
10
1880.0
20
5171
11
1880.0
21
5193
0
LINE
8
0
62
2
10
1880.0
20
5193
11
1840.0
21
5193
0
LINE
8
0
62
2
10
1840.0
20
5193
11
1840.0
21
5171
0
TEXT
8
0
62
2
10
1847.0
20
5177
40
14
1
VSD
0
TEXT
8
0
62
2
10
1832.0
20
5083
40
18
1
CP001
0
TEXT
8
0
62
2
10
1838.0
20
5057
40
16
1
4
0
LINE
8
0
62
2
10
2022.0
20
5352
11
2038.0
21
5372
0
LINE
8
0
62
2
10
2030.0
20
5370
11
2030.0
21
5180
0
CIRCLE
8
0
62
2
10
2030.0
20
5135
40
22
0
TEXT
8
0
62
2
10
2014.0
20
5127
40
18
1
MX
0
LINE
8
0
62
2
10
2010.0
20
5171
11
2050.0
21
5171
0
LINE
8
0
62
2
10
2050.0
20
5171
11
2050.0
21
5193
0
LINE
8
0
62
2
10
2050.0
20
5193
11
2010.0
21
5193
0
LINE
8
0
62
2
10
2010.0
20
5193
11
2010.0
21
5171
0
TEXT
8
0
62
2
10
2017.0
20
5177
40
14
1
VSD
0
TEXT
8
0
62
2
10
2002.0
20
5083
40
18
1
MX001
0
TEXT
8
0
62
2
10
2008.0
20
5057
40
16
1
5.5
0
LINE
8
0
62
2
10
2192.0
20
5352
11
2208.0
21
5372
0
LINE
8
0
62
2
10
2200.0
20
5370
11
2200.0
21
5180
0
CIRCLE
8
0
62
2
10
2200.0
20
5135
40
22
0
TEXT
8
0
62
2
10
2184.0
20
5127
40
18
1
MX
0
LINE
8
0
62
2
10
2180.0
20
5171
11
2220.0
21
5171
0
LINE
8
0
62
2
10
2220.0
20
5171
11
2220.0
21
5193
0
LINE
8
0
62
2
10
2220.0
20
5193
11
2180.0
21
5193
0
LINE
8
0
62
2
10
2180.0
20
5193
11
2180.0
21
5171
0
TEXT
8
0
62
2
10
2187.0
20
5177
40
14
1
VSD
0
TEXT
8
0
62
2
10
2172.0
20
5083
40
18
1
MX002
0
TEXT
8
0
62
2
10
2178.0
20
5057
40
16
1
55
0
LINE
8
0
62
2
10
2362.0
20
5352
11
2378.0
21
5372
0
LINE
8
0
62
2
10
2370.0
20
5370
11
2370.0
21
5180
0
CIRCLE
8
0
62
2
10
2370.0
20
5135
40
22
0
TEXT
8
0
62
2
10
2358.0
20
5127
40
18
1
P
0
LINE
8
0
62
2
10
2350.0
20
5171
11
2390.0
21
5171
0
LINE
8
0
62
2
10
2390.0
20
5171
11
2390.0
21
5193
0
LINE
8
0
62
2
10
2390.0
20
5193
11
2350.0
21
5193
0
LINE
8
0
62
2
10
2350.0
20
5193
11
2350.0
21
5171
0
TEXT
8
0
62
2
10
2357.0
20
5177
40
14
1
VSD
0
TEXT
8
0
62
2
10
2342.0
20
5083
40
18
1
PP002
0
TEXT
8
0
62
2
10
2348.0
20
5057
40
16
1
75
0
LINE
8
0
62
2
10
2532.0
20
5352
11
2548.0
21
5372
0
LINE
8
0
62
2
10
2540.0
20
5370
11
2540.0
21
5180
0
CIRCLE
8
0
62
2
10
2540.0
20
5135
40
22
0
TEXT
8
0
62
2
10
2524.0
20
5127
40
18
1
MX
0
LINE
8
0
62
2
10
2520.0
20
5171
11
2560.0
21
5171
0
LINE
8
0
62
2
10
2560.0
20
5171
11
2560.0
21
5193
0
LINE
8
0
62
2
10
2560.0
20
5193
11
2520.0
21
5193
0
LINE
8
0
62
2
10
2520.0
20
5193
11
2520.0
21
5171
0
TEXT
8
0
62
2
10
2527.0
20
5177
40
14
1
VSD
0
TEXT
8
0
62
2
10
2512.0
20
5083
40
18
1
MX003
0
TEXT
8
0
62
2
10
2518.0
20
5057
40
16
1
22
0
LINE
8
0
62
2
10
2702.0
20
5352
11
2718.0
21
5372
0
LINE
8
0
62
2
10
2710.0
20
5370
11
2710.0
21
5180
0
CIRCLE
8
0
62
2
10
2710.0
20
5135
40
22
0
TEXT
8
0
62
2
10
2694.0
20
5127
40
18
1
MX
0
LINE
8
0
62
2
10
2690.0
20
5171
11
2730.0
21
5171
0
LINE
8
0
62
2
10
2730.0
20
5171
11
2730.0
21
5193
0
LINE
8
0
62
2
10
2730.0
20
5193
11
2690.0
21
5193
0
LINE
8
0
62
2
10
2690.0
20
5193
11
2690.0
21
5171
0
TEXT
8
0
62
2
10
2697.0
20
5177
40
14
1
VSD
0
TEXT
8
0
62
2
10
2682.0
20
5083
40
18
1
MX004
0
TEXT
8
0
62
2
10
2688.0
20
5057
40
16
1
2.2
0
LINE
8
0
62
2
10
2872.0
20
5352
11
2888.0
21
5372
0
LINE
8
0
62
2
10
2880.0
20
5370
11
2880.0
21
5180
0
CIRCLE
8
0
62
2
10
2880.0
20
5135
40
22
0
TEXT
8
0
62
2
10
2864.0
20
5127
40
18
1
MX
0
LINE
8
0
62
2
10
2860.0
20
5171
11
2900.0
21
5171
0
LINE
8
0
62
2
10
2900.0
20
5171
11
2900.0
21
5193
0
LINE
8
0
62
2
10
2900.0
20
5193
11
2860.0
21
5193
0
LINE
8
0
62
2
10
2860.0
20
5193
11
2860.0
21
5171
0
TEXT
8
0
62
2
10
2867.0
20
5177
40
14
1
VSD
0
TEXT
8
0
62
2
10
2852.0
20
5083
40
18
1
MX005
0
TEXT
8
0
62
2
10
2858.0
20
5057
40
16
1
3
0
LINE
8
0
62
2
10
3042.0
20
5352
11
3058.0
21
5372
0
LINE
8
0
62
2
10
3050.0
20
5370
11
3050.0
21
5180
0
CIRCLE
8
0
62
2
10
3050.0
20
5135
40
22
0
TEXT
8
0
62
2
10
3038.0
20
5127
40
18
1
P
0
LINE
8
0
62
2
10
3030.0
20
5171
11
3070.0
21
5171
0
LINE
8
0
62
2
10
3070.0
20
5171
11
3070.0
21
5193
0
LINE
8
0
62
2
10
3070.0
20
5193
11
3030.0
21
5193
0
LINE
8
0
62
2
10
3030.0
20
5193
11
3030.0
21
5171
0
TEXT
8
0
62
2
10
3037.0
20
5177
40
14
1
VSD
0
TEXT
8
0
62
2
10
3022.0
20
5083
40
18
1
PP003
0
TEXT
8
0
62
2
10
3028.0
20
5057
40
16
1
22
0
LINE
8
0
62
2
10
3212.0
20
5352
11
3228.0
21
5372
0
LINE
8
0
62
2
10
3220.0
20
5370
11
3220.0
21
5180
0
CIRCLE
8
0
62
2
10
3220.0
20
5135
40
22
0
TEXT
8
0
62
2
10
3208.0
20
5127
40
18
1
C
0
LINE
8
0
62
2
10
3200.0
20
5171
11
3240.0
21
5171
0
LINE
8
0
62
2
10
3240.0
20
5171
11
3240.0
21
5193
0
LINE
8
0
62
2
10
3240.0
20
5193
11
3200.0
21
5193
0
LINE
8
0
62
2
10
3200.0
20
5193
11
3200.0
21
5171
0
TEXT
8
0
62
2
10
3207.0
20
5177
40
14
1
VSD
0
TEXT
8
0
62
2
10
3192.0
20
5083
40
18
1
CP002
0
TEXT
8
0
62
2
10
3198.0
20
5057
40
16
1
5.5
0
LINE
8
0
62
2
10
3382.0
20
5352
11
3398.0
21
5372
0
LINE
8
0
62
2
10
3390.0
20
5370
11
3390.0
21
5180
0
CIRCLE
8
0
62
2
10
3390.0
20
5135
40
22
0
TEXT
8
0
62
2
10
3378.0
20
5127
40
18
1
P
0
LINE
8
0
62
2
10
3370.0
20
5171
11
3410.0
21
5171
0
LINE
8
0
62
2
10
3410.0
20
5171
11
3410.0
21
5193
0
LINE
8
0
62
2
10
3410.0
20
5193
11
3370.0
21
5193
0
LINE
8
0
62
2
10
3370.0
20
5193
11
3370.0
21
5171
0
TEXT
8
0
62
2
10
3377.0
20
5177
40
14
1
VSD
0
TEXT
8
0
62
2
10
3362.0
20
5083
40
18
1
PP004
0
TEXT
8
0
62
2
10
3368.0
20
5057
40
16
1
4
0
LINE
8
0
62
2
10
3552.0
20
5352
11
3568.0
21
5372
0
LINE
8
0
62
2
10
3560.0
20
5370
11
3560.0
21
5180
0
CIRCLE
8
0
62
2
10
3560.0
20
5135
40
22
0
TEXT
8
0
62
2
10
3548.0
20
5127
40
18
1
F
0
TEXT
8
0
62
2
10
3532.0
20
5083
40
18
1
FN003
0
TEXT
8
0
62
2
10
3538.0
20
5057
40
16
1
75
0
LINE
8
0
62
2
10
3722.0
20
5352
11
3738.0
21
5372
0
LINE
8
0
62
2
10
3730.0
20
5370
11
3730.0
21
5180
0
CIRCLE
8
0
62
2
10
3730.0
20
5135
40
22
0
TEXT
8
0
62
2
10
3718.0
20
5127
40
18
1
C
0
LINE
8
0
62
2
10
3710.0
20
5171
11
3750.0
21
5171
0
LINE
8
0
62
2
10
3750.0
20
5171
11
3750.0
21
5193
0
LINE
8
0
62
2
10
3750.0
20
5193
11
3710.0
21
5193
0
LINE
8
0
62
2
10
3710.0
20
5193
11
3710.0
21
5171
0
TEXT
8
0
62
2
10
3717.0
20
5177
40
14
1
VSD
0
TEXT
8
0
62
2
10
3702.0
20
5083
40
18
1
CP003
0
TEXT
8
0
62
2
10
3708.0
20
5057
40
16
1
3
0
LINE
8
0
62
2
10
3892.0
20
5352
11
3908.0
21
5372
0
LINE
8
0
62
2
10
3900.0
20
5370
11
3900.0
21
5180
0
CIRCLE
8
0
62
2
10
3900.0
20
5135
40
22
0
TEXT
8
0
62
2
10
3888.0
20
5127
40
18
1
F
0
TEXT
8
0
62
2
10
3872.0
20
5083
40
18
1
FN004
0
TEXT
8
0
62
2
10
3878.0
20
5057
40
16
1
11
0
LINE
8
0
62
2
10
4062.0
20
5352
11
4078.0
21
5372
0
LINE
8
0
62
2
10
4070.0
20
5370
11
4070.0
21
5180
0
CIRCLE
8
0
62
2
10
4070.0
20
5135
40
22
0
TEXT
8
0
62
2
10
4058.0
20
5127
40
18
1
C
0
LINE
8
0
62
2
10
4050.0
20
5171
11
4090.0
21
5171
0
LINE
8
0
62
2
10
4090.0
20
5171
11
4090.0
21
5193
0
LINE
8
0
62
2
10
4090.0
20
5193
11
4050.0
21
5193
0
LINE
8
0
62
2
10
4050.0
20
5193
11
4050.0
21
5171
0
TEXT
8
0
62
2
10
4057.0
20
5177
40
14
1
VSD
0
TEXT
8
0
62
2
10
4042.0
20
5083
40
18
1
CP004
0
TEXT
8
0
62
2
10
4048.0
20
5057
40
16
1
2.2
0
LINE
8
0
62
2
10
4232.0
20
5352
11
4248.0
21
5372
0
LINE
8
0
62
2
10
4240.0
20
5370
11
4240.0
21
5180
0
CIRCLE
8
0
62
2
10
4240.0
20
5135
40
22
0
TEXT
8
0
62
2
10
4228.0
20
5127
40
18
1
C
0
LINE
8
0
62
2
10
4220.0
20
5171
11
4260.0
21
5171
0
LINE
8
0
62
2
10
4260.0
20
5171
11
4260.0
21
5193
0
LINE
8
0
62
2
10
4260.0
20
5193
11
4220.0
21
5193
0
LINE
8
0
62
2
10
4220.0
20
5193
11
4220.0
21
5171
0
TEXT
8
0
62
2
10
4227.0
20
5177
40
14
1
VSD
0
TEXT
8
0
62
2
10
4212.0
20
5083
40
18
1
CP005
0
TEXT
8
0
62
2
10
4218.0
20
5057
40
16
1
22
0
LINE
8
0
62
2
10
4402.0
20
5352
11
4418.0
21
5372
0
LINE
8
0
62
2
10
4410.0
20
5370
11
4410.0
21
5180
0
CIRCLE
8
0
62
2
10
4410.0
20
5135
40
22
0
TEXT
8
0
62
2
10
4398.0
20
5127
40
18
1
F
0
TEXT
8
0
62
2
10
4382.0
20
5083
40
18
1
FN005
0
TEXT
8
0
62
2
10
4388.0
20
5057
40
16
1
55
0
LINE
8
0
62
2
10
4572.0
20
5352
11
4588.0
21
5372
0
LINE
8
0
62
2
10
4580.0
20
5370
11
4580.0
21
5180
0
CIRCLE
8
0
62
2
10
4580.0
20
5135
40
22
0
TEXT
8
0
62
2
10
4564.0
20
5127
40
18
1
MX
0
LINE
8
0
62
2
10
4560.0
20
5171
11
4600.0
21
5171
0
LINE
8
0
62
2
10
4600.0
20
5171
11
4600.0
21
5193
0
LINE
8
0
62
2
10
4600.0
20
5193
11
4560.0
21
5193
0
LINE
8
0
62
2
10
4560.0
20
5193
11
4560.0
21
5171
0
TEXT
8
0
62
2
10
4567.0
20
5177
40
14
1
VSD
0
TEXT
8
0
62
2
10
4552.0
20
5083
40
18
1
MX006
0
TEXT
8
0
62
2
10
4558.0
20
5057
40
16
1
2.2
0
LINE
8
0
62
2
10
4742.0
20
5352
11
4758.0
21
5372
0
LINE
8
0
62
2
10
4750.0
20
5370
11
4750.0
21
5180
0
CIRCLE
8
0
62
2
10
4750.0
20
5135
40
22
0
TEXT
8
0
62
2
10
4734.0
20
5127
40
18
1
MX
0
LINE
8
0
62
2
10
4730.0
20
5171
11
4770.0
21
5171
0
LINE
8
0
62
2
10
4770.0
20
5171
11
4770.0
21
5193
0
LINE
8
0
62
2
10
4770.0
20
5193
11
4730.0
21
5193
0
LINE
8
0
62
2
10
4730.0
20
5193
11
4730.0
21
5171
0
TEXT
8
0
62
2
10
4737.0
20
5177
40
14
1
VSD
0
TEXT
8
0
62
2
10
4722.0
20
5083
40
18
1
MX007
0
TEXT
8
0
62
2
10
4728.0
20
5057
40
16
1
18.5
0
LINE
8
0
62
2
10
4912.0
20
5352
11
4928.0
21
5372
0
LINE
8
0
62
2
10
4920.0
20
5370
11
4920.0
21
5180
0
CIRCLE
8
0
62
2
10
4920.0
20
5135
40
22
0
TEXT
8
0
62
2
10
4908.0
20
5127
40
18
1
F
0
TEXT
8
0
62
2
10
4892.0
20
5083
40
18
1
FN006
0
TEXT
8
0
62
2
10
4898.0
20
5057
40
16
1
22
0
LINE
8
0
62
7
10
2000
20
6750
11
2000
21
5540
0
LINE
8
0
62
7
10
2000
20
5540
11
3135.0
21
5540
0
LINE
8
0
62
7
10
3135.0
20
5540
11
3135.0
21
5500
0
LINE
8
0
62
3
10
1200
20
3950
11
4050
21
3950
0
LINE
8
0
62
3
10
4050
20
3950
11
4050
21
4250
0
LINE
8
0
62
3
10
4050
20
4250
11
1200
21
4250
0
LINE
8
0
62
3
10
1200
20
4250
11
1200
21
3950
0
TEXT
8
0
62
3
10
1220
20
4215
40
26
1
KPL2-A10-410-LV01-MCC02
0
TEXT
8
0
62
3
10
1220
20
4182
40
22
1
MCC
0
TEXT
8
0
62
3
10
1220
20
4152
40
20
1
0.4 kV / CAP 450 kW / LOAD 399.4 kW
0
LINE
8
0
62
5
10
1270
20
4120
11
3980
21
4120
0
LINE
8
0
62
2
10
1342.0
20
4102
11
1358.0
21
4122
0
LINE
8
0
62
2
10
1350.0
20
4120
11
1350.0
21
3930
0
LINE
8
0
62
2
10
1322.0
20
3863
11
1378.0
21
3863
0
LINE
8
0
62
2
10
1378.0
20
3863
11
1378.0
21
3907
0
LINE
8
0
62
2
10
1378.0
20
3907
11
1322.0
21
3907
0
LINE
8
0
62
2
10
1322.0
20
3907
11
1322.0
21
3863
0
TEXT
8
0
62
2
10
1338.0
20
3877
40
22
1
PK
0
TEXT
8
0
62
2
10
1322.0
20
3833
40
18
1
PK001
0
TEXT
8
0
62
2
10
1328.0
20
3807
40
16
1
7.5
0
LINE
8
0
62
2
10
1512.0
20
4102
11
1528.0
21
4122
0
LINE
8
0
62
2
10
1520.0
20
4120
11
1520.0
21
3930
0
CIRCLE
8
0
62
2
10
1520.0
20
3885
40
22
0
TEXT
8
0
62
2
10
1508.0
20
3877
40
18
1
F
0
TEXT
8
0
62
2
10
1492.0
20
3833
40
18
1
FN007
0
TEXT
8
0
62
2
10
1498.0
20
3807
40
16
1
75
0
LINE
8
0
62
2
10
1682.0
20
4102
11
1698.0
21
4122
0
LINE
8
0
62
2
10
1690.0
20
4120
11
1690.0
21
3930
0
CIRCLE
8
0
62
2
10
1690.0
20
3885
40
22
0
TEXT
8
0
62
2
10
1678.0
20
3877
40
18
1
P
0
LINE
8
0
62
2
10
1670.0
20
3921
11
1710.0
21
3921
0
LINE
8
0
62
2
10
1710.0
20
3921
11
1710.0
21
3943
0
LINE
8
0
62
2
10
1710.0
20
3943
11
1670.0
21
3943
0
LINE
8
0
62
2
10
1670.0
20
3943
11
1670.0
21
3921
0
TEXT
8
0
62
2
10
1677.0
20
3927
40
14
1
VSD
0
TEXT
8
0
62
2
10
1662.0
20
3833
40
18
1
PP005
0
TEXT
8
0
62
2
10
1668.0
20
3807
40
16
1
45
0
LINE
8
0
62
2
10
1852.0
20
4102
11
1868.0
21
4122
0
LINE
8
0
62
2
10
1860.0
20
4120
11
1860.0
21
3930
0
CIRCLE
8
0
62
2
10
1860.0
20
3885
40
22
0
TEXT
8
0
62
2
10
1848.0
20
3877
40
18
1
F
0
TEXT
8
0
62
2
10
1832.0
20
3833
40
18
1
FN008
0
TEXT
8
0
62
2
10
1838.0
20
3807
40
16
1
5.5
0
LINE
8
0
62
2
10
2022.0
20
4102
11
2038.0
21
4122
0
LINE
8
0
62
2
10
2030.0
20
4120
11
2030.0
21
3930
0
CIRCLE
8
0
62
2
10
2030.0
20
3885
40
22
0
TEXT
8
0
62
2
10
2018.0
20
3877
40
18
1
C
0
LINE
8
0
62
2
10
2010.0
20
3921
11
2050.0
21
3921
0
LINE
8
0
62
2
10
2050.0
20
3921
11
2050.0
21
3943
0
LINE
8
0
62
2
10
2050.0
20
3943
11
2010.0
21
3943
0
LINE
8
0
62
2
10
2010.0
20
3943
11
2010.0
21
3921
0
TEXT
8
0
62
2
10
2017.0
20
3927
40
14
1
VSD
0
TEXT
8
0
62
2
10
2002.0
20
3833
40
18
1
CP006
0
TEXT
8
0
62
2
10
2008.0
20
3807
40
16
1
37
0
LINE
8
0
62
2
10
2192.0
20
4102
11
2208.0
21
4122
0
LINE
8
0
62
2
10
2200.0
20
4120
11
2200.0
21
3930
0
LINE
8
0
62
2
10
2166.0
20
3885
11
2176.0
21
3901
0
LINE
8
0
62
2
10
2176.0
20
3901
11
2186.0
21
3869
0
LINE
8
0
62
2
10
2186.0
20
3869
11
2196.0
21
3901
0
LINE
8
0
62
2
10
2196.0
20
3901
11
2206.0
21
3869
0
LINE
8
0
62
2
10
2206.0
20
3869
11
2216.0
21
3901
0
LINE
8
0
62
2
10
2216.0
20
3901
11
2226.0
21
3869
0
LINE
8
0
62
2
10
2226.0
20
3869
11
2236.0
21
3885
0
TEXT
8
0
62
2
10
2172.0
20
3833
40
18
1
HT001
0
TEXT
8
0
62
2
10
2178.0
20
3807
40
16
1
75
0
LINE
8
0
62
2
10
2362.0
20
4102
11
2378.0
21
4122
0
LINE
8
0
62
2
10
2370.0
20
4120
11
2370.0
21
3930
0
CIRCLE
8
0
62
2
10
2370.0
20
3885
40
22
0
TEXT
8
0
62
2
10
2358.0
20
3877
40
18
1
P
0
LINE
8
0
62
2
10
2350.0
20
3921
11
2390.0
21
3921
0
LINE
8
0
62
2
10
2390.0
20
3921
11
2390.0
21
3943
0
LINE
8
0
62
2
10
2390.0
20
3943
11
2350.0
21
3943
0
LINE
8
0
62
2
10
2350.0
20
3943
11
2350.0
21
3921
0
TEXT
8
0
62
2
10
2357.0
20
3927
40
14
1
VSD
0
TEXT
8
0
62
2
10
2342.0
20
3833
40
18
1
PP006
0
TEXT
8
0
62
2
10
2348.0
20
3807
40
16
1
22
0
LINE
8
0
62
2
10
2532.0
20
4102
11
2548.0
21
4122
0
LINE
8
0
62
2
10
2540.0
20
4120
11
2540.0
21
3930
0
CIRCLE
8
0
62
2
10
2540.0
20
3885
40
22
0
TEXT
8
0
62
2
10
2528.0
20
3877
40
18
1
C
0
LINE
8
0
62
2
10
2520.0
20
3921
11
2560.0
21
3921
0
LINE
8
0
62
2
10
2560.0
20
3921
11
2560.0
21
3943
0
LINE
8
0
62
2
10
2560.0
20
3943
11
2520.0
21
3943
0
LINE
8
0
62
2
10
2520.0
20
3943
11
2520.0
21
3921
0
TEXT
8
0
62
2
10
2527.0
20
3927
40
14
1
VSD
0
TEXT
8
0
62
2
10
2512.0
20
3833
40
18
1
CP007
0
TEXT
8
0
62
2
10
2518.0
20
3807
40
16
1
1.5
0
LINE
8
0
62
2
10
2702.0
20
4102
11
2718.0
21
4122
0
LINE
8
0
62
2
10
2710.0
20
4120
11
2710.0
21
3930
0
CIRCLE
8
0
62
2
10
2710.0
20
3885
40
22
0
TEXT
8
0
62
2
10
2694.0
20
3877
40
18
1
MX
0
LINE
8
0
62
2
10
2690.0
20
3921
11
2730.0
21
3921
0
LINE
8
0
62
2
10
2730.0
20
3921
11
2730.0
21
3943
0
LINE
8
0
62
2
10
2730.0
20
3943
11
2690.0
21
3943
0
LINE
8
0
62
2
10
2690.0
20
3943
11
2690.0
21
3921
0
TEXT
8
0
62
2
10
2697.0
20
3927
40
14
1
VSD
0
TEXT
8
0
62
2
10
2682.0
20
3833
40
18
1
MX008
0
TEXT
8
0
62
2
10
2688.0
20
3807
40
16
1
30
0
LINE
8
0
62
2
10
2872.0
20
4102
11
2888.0
21
4122
0
LINE
8
0
62
2
10
2880.0
20
4120
11
2880.0
21
3930
0
LINE
8
0
62
2
10
2846.0
20
3885
11
2856.0
21
3901
0
LINE
8
0
62
2
10
2856.0
20
3901
11
2866.0
21
3869
0
LINE
8
0
62
2
10
2866.0
20
3869
11
2876.0
21
3901
0
LINE
8
0
62
2
10
2876.0
20
3901
11
2886.0
21
3869
0
LINE
8
0
62
2
10
2886.0
20
3869
11
2896.0
21
3901
0
LINE
8
0
62
2
10
2896.0
20
3901
11
2906.0
21
3869
0
LINE
8
0
62
2
10
2906.0
20
3869
11
2916.0
21
3885
0
TEXT
8
0
62
2
10
2852.0
20
3833
40
18
1
HT002
0
TEXT
8
0
62
2
10
2858.0
20
3807
40
16
1
4
0
LINE
8
0
62
2
10
3042.0
20
4102
11
3058.0
21
4122
0
LINE
8
0
62
2
10
3050.0
20
4120
11
3050.0
21
3930
0
LINE
8
0
62
2
10
3016.0
20
3885
11
3026.0
21
3901
0
LINE
8
0
62
2
10
3026.0
20
3901
11
3036.0
21
3869
0
LINE
8
0
62
2
10
3036.0
20
3869
11
3046.0
21
3901
0
LINE
8
0
62
2
10
3046.0
20
3901
11
3056.0
21
3869
0
LINE
8
0
62
2
10
3056.0
20
3869
11
3066.0
21
3901
0
LINE
8
0
62
2
10
3066.0
20
3901
11
3076.0
21
3869
0
LINE
8
0
62
2
10
3076.0
20
3869
11
3086.0
21
3885
0
TEXT
8
0
62
2
10
3022.0
20
3833
40
18
1
HT003
0
TEXT
8
0
62
2
10
3028.0
20
3807
40
16
1
7.5
0
LINE
8
0
62
2
10
3212.0
20
4102
11
3228.0
21
4122
0
LINE
8
0
62
2
10
3220.0
20
4120
11
3220.0
21
3930
0
CIRCLE
8
0
62
2
10
3220.0
20
3885
40
22
0
TEXT
8
0
62
2
10
3208.0
20
3877
40
18
1
C
0
LINE
8
0
62
2
10
3200.0
20
3921
11
3240.0
21
3921
0
LINE
8
0
62
2
10
3240.0
20
3921
11
3240.0
21
3943
0
LINE
8
0
62
2
10
3240.0
20
3943
11
3200.0
21
3943
0
LINE
8
0
62
2
10
3200.0
20
3943
11
3200.0
21
3921
0
TEXT
8
0
62
2
10
3207.0
20
3927
40
14
1
VSD
0
TEXT
8
0
62
2
10
3192.0
20
3833
40
18
1
CP008
0
TEXT
8
0
62
2
10
3198.0
20
3807
40
16
1
2.2
0
LINE
8
0
62
2
10
3382.0
20
4102
11
3398.0
21
4122
0
LINE
8
0
62
2
10
3390.0
20
4120
11
3390.0
21
3930
0
LINE
8
0
62
2
10
3362.0
20
3863
11
3418.0
21
3863
0
LINE
8
0
62
2
10
3418.0
20
3863
11
3418.0
21
3907
0
LINE
8
0
62
2
10
3418.0
20
3907
11
3362.0
21
3907
0
LINE
8
0
62
2
10
3362.0
20
3907
11
3362.0
21
3863
0
TEXT
8
0
62
2
10
3378.0
20
3877
40
22
1
PK
0
TEXT
8
0
62
2
10
3362.0
20
3833
40
18
1
PK002
0
TEXT
8
0
62
2
10
3368.0
20
3807
40
16
1
15
0
LINE
8
0
62
2
10
3552.0
20
4102
11
3568.0
21
4122
0
LINE
8
0
62
2
10
3560.0
20
4120
11
3560.0
21
3930
0
CIRCLE
8
0
62
2
10
3560.0
20
3885
40
22
0
TEXT
8
0
62
2
10
3548.0
20
3877
40
18
1
P
0
LINE
8
0
62
2
10
3540.0
20
3921
11
3580.0
21
3921
0
LINE
8
0
62
2
10
3580.0
20
3921
11
3580.0
21
3943
0
LINE
8
0
62
2
10
3580.0
20
3943
11
3540.0
21
3943
0
LINE
8
0
62
2
10
3540.0
20
3943
11
3540.0
21
3921
0
TEXT
8
0
62
2
10
3547.0
20
3927
40
14
1
VSD
0
TEXT
8
0
62
2
10
3532.0
20
3833
40
18
1
PP007
0
TEXT
8
0
62
2
10
3538.0
20
3807
40
16
1
15
0
LINE
8
0
62
2
10
3722.0
20
4102
11
3738.0
21
4122
0
LINE
8
0
62
2
10
3730.0
20
4120
11
3730.0
21
3930
0
CIRCLE
8
0
62
2
10
3730.0
20
3885
40
22
0
TEXT
8
0
62
2
10
3718.0
20
3877
40
18
1
P
0
LINE
8
0
62
2
10
3710.0
20
3921
11
3750.0
21
3921
0
LINE
8
0
62
2
10
3750.0
20
3921
11
3750.0
21
3943
0
LINE
8
0
62
2
10
3750.0
20
3943
11
3710.0
21
3943
0
LINE
8
0
62
2
10
3710.0
20
3943
11
3710.0
21
3921
0
TEXT
8
0
62
2
10
3717.0
20
3927
40
14
1
VSD
0
TEXT
8
0
62
2
10
3702.0
20
3833
40
18
1
PP008
0
TEXT
8
0
62
2
10
3708.0
20
3807
40
16
1
2.2
0
LINE
8
0
62
2
10
3892.0
20
4102
11
3908.0
21
4122
0
LINE
8
0
62
2
10
3900.0
20
4120
11
3900.0
21
3930
0
CIRCLE
8
0
62
2
10
3900.0
20
3885
40
22
0
TEXT
8
0
62
2
10
3888.0
20
3877
40
18
1
F
0
TEXT
8
0
62
2
10
3872.0
20
3833
40
18
1
FN009
0
TEXT
8
0
62
2
10
3878.0
20
3807
40
16
1
55
0
LINE
8
0
62
7
10
2800
20
6750
11
2800
21
4290
0
LINE
8
0
62
7
10
2800
20
4290
11
2625.0
21
4290
0
LINE
8
0
62
7
10
2625.0
20
4290
11
2625.0
21
4250
0
LINE
8
0
62
3
10
1200
20
2700
11
2860
21
2700
0
LINE
8
0
62
3
10
2860
20
2700
11
2860
21
3000
0
LINE
8
0
62
3
10
2860
20
3000
11
1200
21
3000
0
LINE
8
0
62
3
10
1200
20
3000
11
1200
21
2700
0
TEXT
8
0
62
3
10
1220
20
2965
40
26
1
KPL2-A10-410-LV01-DB01
0
TEXT
8
0
62
3
10
1220
20
2932
40
22
1
DB
0
TEXT
8
0
62
3
10
1220
20
2902
40
20
1
0.4 kV / CAP 350 kW / LOAD 292.5 kW
0
LINE
8
0
62
5
10
1270
20
2870
11
2790
21
2870
0
LINE
8
0
62
2
10
1342.0
20
2852
11
1358.0
21
2872
0
LINE
8
0
62
2
10
1350.0
20
2870
11
1350.0
21
2680
0
LINE
8
0
62
2
10
1316.0
20
2635
11
1326.0
21
2651
0
LINE
8
0
62
2
10
1326.0
20
2651
11
1336.0
21
2619
0
LINE
8
0
62
2
10
1336.0
20
2619
11
1346.0
21
2651
0
LINE
8
0
62
2
10
1346.0
20
2651
11
1356.0
21
2619
0
LINE
8
0
62
2
10
1356.0
20
2619
11
1366.0
21
2651
0
LINE
8
0
62
2
10
1366.0
20
2651
11
1376.0
21
2619
0
LINE
8
0
62
2
10
1376.0
20
2619
11
1386.0
21
2635
0
TEXT
8
0
62
2
10
1322.0
20
2583
40
18
1
HT004
0
TEXT
8
0
62
2
10
1328.0
20
2557
40
16
1
75
0
LINE
8
0
62
2
10
1512.0
20
2852
11
1528.0
21
2872
0
LINE
8
0
62
2
10
1520.0
20
2870
11
1520.0
21
2680
0
LINE
8
0
62
2
10
1492.0
20
2613
11
1548.0
21
2613
0
LINE
8
0
62
2
10
1548.0
20
2613
11
1548.0
21
2657
0
LINE
8
0
62
2
10
1548.0
20
2657
11
1492.0
21
2657
0
LINE
8
0
62
2
10
1492.0
20
2657
11
1492.0
21
2613
0
TEXT
8
0
62
2
10
1508.0
20
2627
40
22
1
PK
0
TEXT
8
0
62
2
10
1492.0
20
2583
40
18
1
PK003
0
TEXT
8
0
62
2
10
1498.0
20
2557
40
16
1
3
0
LINE
8
0
62
2
10
1682.0
20
2852
11
1698.0
21
2872
0
LINE
8
0
62
2
10
1690.0
20
2870
11
1690.0
21
2680
0
CIRCLE
8
0
62
2
10
1690.0
20
2635
40
22
0
LINE
8
0
62
2
10
1675.0
20
2620
11
1705.0
21
2650
0
LINE
8
0
62
2
10
1675.0
20
2650
11
1705.0
21
2620
0
TEXT
8
0
62
2
10
1662.0
20
2583
40
18
1
LP001
0
TEXT
8
0
62
2
10
1668.0
20
2557
40
16
1
37
0
LINE
8
0
62
2
10
1852.0
20
2852
11
1868.0
21
2872
0
LINE
8
0
62
2
10
1860.0
20
2870
11
1860.0
21
2680
0
CIRCLE
8
0
62
2
10
1860.0
20
2635
40
22
0
TEXT
8
0
62
2
10
1848.0
20
2627
40
18
1
M
0
TEXT
8
0
62
2
10
1832.0
20
2583
40
18
1
UP001
0
TEXT
8
0
62
2
10
1838.0
20
2557
40
16
1
1.5
0
LINE
8
0
62
2
10
2022.0
20
2852
11
2038.0
21
2872
0
LINE
8
0
62
2
10
2030.0
20
2870
11
2030.0
21
2680
0
CIRCLE
8
0
62
2
10
2030.0
20
2635
40
22
0
TEXT
8
0
62
2
10
2018.0
20
2627
40
18
1
M
0
TEXT
8
0
62
2
10
2002.0
20
2583
40
18
1
UP002
0
TEXT
8
0
62
2
10
2008.0
20
2557
40
16
1
11
0
LINE
8
0
62
2
10
2192.0
20
2852
11
2208.0
21
2872
0
LINE
8
0
62
2
10
2200.0
20
2870
11
2200.0
21
2680
0
CIRCLE
8
0
62
2
10
2200.0
20
2635
40
22
0
LINE
8
0
62
2
10
2185.0
20
2620
11
2215.0
21
2650
0
LINE
8
0
62
2
10
2185.0
20
2650
11
2215.0
21
2620
0
TEXT
8
0
62
2
10
2172.0
20
2583
40
18
1
LP002
0
TEXT
8
0
62
2
10
2178.0
20
2557
40
16
1
11
0
LINE
8
0
62
2
10
2362.0
20
2852
11
2378.0
21
2872
0
LINE
8
0
62
2
10
2370.0
20
2870
11
2370.0
21
2680
0
LINE
8
0
62
2
10
2336.0
20
2635
11
2346.0
21
2651
0
LINE
8
0
62
2
10
2346.0
20
2651
11
2356.0
21
2619
0
LINE
8
0
62
2
10
2356.0
20
2619
11
2366.0
21
2651
0
LINE
8
0
62
2
10
2366.0
20
2651
11
2376.0
21
2619
0
LINE
8
0
62
2
10
2376.0
20
2619
11
2386.0
21
2651
0
LINE
8
0
62
2
10
2386.0
20
2651
11
2396.0
21
2619
0
LINE
8
0
62
2
10
2396.0
20
2619
11
2406.0
21
2635
0
TEXT
8
0
62
2
10
2342.0
20
2583
40
18
1
HT005
0
TEXT
8
0
62
2
10
2348.0
20
2557
40
16
1
4
0
LINE
8
0
62
2
10
2532.0
20
2852
11
2548.0
21
2872
0
LINE
8
0
62
2
10
2540.0
20
2870
11
2540.0
21
2680
0
LINE
8
0
62
2
10
2506.0
20
2635
11
2516.0
21
2651
0
LINE
8
0
62
2
10
2516.0
20
2651
11
2526.0
21
2619
0
LINE
8
0
62
2
10
2526.0
20
2619
11
2536.0
21
2651
0
LINE
8
0
62
2
10
2536.0
20
2651
11
2546.0
21
2619
0
LINE
8
0
62
2
10
2546.0
20
2619
11
2556.0
21
2651
0
LINE
8
0
62
2
10
2556.0
20
2651
11
2566.0
21
2619
0
LINE
8
0
62
2
10
2566.0
20
2619
11
2576.0
21
2635
0
TEXT
8
0
62
2
10
2512.0
20
2583
40
18
1
HT006
0
TEXT
8
0
62
2
10
2518.0
20
2557
40
16
1
75
0
LINE
8
0
62
2
10
2702.0
20
2852
11
2718.0
21
2872
0
LINE
8
0
62
2
10
2710.0
20
2870
11
2710.0
21
2680
0
LINE
8
0
62
2
10
2676.0
20
2635
11
2686.0
21
2651
0
LINE
8
0
62
2
10
2686.0
20
2651
11
2696.0
21
2619
0
LINE
8
0
62
2
10
2696.0
20
2619
11
2706.0
21
2651
0
LINE
8
0
62
2
10
2706.0
20
2651
11
2716.0
21
2619
0
LINE
8
0
62
2
10
2716.0
20
2619
11
2726.0
21
2651
0
LINE
8
0
62
2
10
2726.0
20
2651
11
2736.0
21
2619
0
LINE
8
0
62
2
10
2736.0
20
2619
11
2746.0
21
2635
0
TEXT
8
0
62
2
10
2682.0
20
2583
40
18
1
PP009
0
TEXT
8
0
62
2
10
2688.0
20
2557
40
16
1
75
0
LINE
8
0
62
7
10
3600
20
6750
11
3600
21
3040
0
LINE
8
0
62
7
10
3600
20
3040
11
2030.0
21
3040
0
LINE
8
0
62
7
10
2030.0
20
3040
11
2030.0
21
3000
0
TEXT
8
0
62
7
10
8500
20
7800
40
34
1
AREA B20
0
LINE
8
0
62
7
10
9000
20
8340
11
9000
21
7600
0
CIRCLE
8
0
62
4
10
9000
20
7515
40
28
0
CIRCLE
8
0
62
4
10
9000
20
7475
40
28
0
LINE
8
0
62
7
10
9000
20
7580
11
9000
21
7543
0
LINE
8
0
62
7
10
9000
20
7447
11
9000
21
7380
0
TEXT
8
0
62
7
10
9045
20
7535
40
30
1
KPL2-B20-420-TR02
0
TEXT
8
0
62
7
10
9045
20
7500
40
24
1
6.6 / 0.4 kV
0
TEXT
8
0
62
7
10
9045
20
7470
40
24
1
1600 kVA
0
LINE
8
0
62
7
10
9000
20
7380
11
9000
21
7100
0
LINE
8
0
62
3
10
7000
20
6600
11
9600
21
6600
0
LINE
8
0
62
3
10
9600
20
6600
11
9600
21
6900
0
LINE
8
0
62
3
10
9600
20
6900
11
7000
21
6900
0
LINE
8
0
62
3
10
7000
20
6900
11
7000
21
6600
0
TEXT
8
0
62
3
10
7020
20
6855
40
26
1
KPL2-B20-420-LV02-SWBD02
0
TEXT
8
0
62
3
10
7020
20
6825
40
22
1
LV SWITCHBOARD
0
TEXT
8
0
62
3
10
7020
20
6795
40
20
1
0.4 kV / CAP 1500 kW / LOAD 1050 kW
0
LINE
8
0
62
5
10
7080
20
6750
11
9520
21
6750
0
LINE
8
0
62
7
10
9000
20
7100
11
9000
21
6750
0
LINE
8
0
62
3
10
6700
20
5200
11
9890
21
5200
0
LINE
8
0
62
3
10
9890
20
5200
11
9890
21
5500
0
LINE
8
0
62
3
10
9890
20
5500
11
6700
21
5500
0
LINE
8
0
62
3
10
6700
20
5500
11
6700
21
5200
0
TEXT
8
0
62
3
10
6720
20
5465
40
26
1
KPL2-B20-420-LV02-MCC03
0
TEXT
8
0
62
3
10
6720
20
5432
40
22
1
MCC
0
TEXT
8
0
62
3
10
6720
20
5402
40
20
1
0.4 kV / CAP 900 kW / LOAD 1141 kW
0
LINE
8
0
62
5
10
6770
20
5370
11
9820
21
5370
0
LINE
8
0
62
2
10
6842.0
20
5352
11
6858.0
21
5372
0
LINE
8
0
62
2
10
6850.0
20
5370
11
6850.0
21
5180
0
CIRCLE
8
0
62
2
10
6850.0
20
5135
40
22
0
TEXT
8
0
62
2
10
6838.0
20
5127
40
18
1
P
0
LINE
8
0
62
2
10
6830.0
20
5171
11
6870.0
21
5171
0
LINE
8
0
62
2
10
6870.0
20
5171
11
6870.0
21
5193
0
LINE
8
0
62
2
10
6870.0
20
5193
11
6830.0
21
5193
0
LINE
8
0
62
2
10
6830.0
20
5193
11
6830.0
21
5171
0
TEXT
8
0
62
2
10
6837.0
20
5177
40
14
1
VSD
0
TEXT
8
0
62
2
10
6822.0
20
5083
40
18
1
PP001
0
TEXT
8
0
62
2
10
6828.0
20
5057
40
16
1
30
0
LINE
8
0
62
2
10
7012.0
20
5352
11
7028.0
21
5372
0
LINE
8
0
62
2
10
7020.0
20
5370
11
7020.0
21
5180
0
CIRCLE
8
0
62
2
10
7020.0
20
5135
40
22
0
TEXT
8
0
62
2
10
7004.0
20
5127
40
18
1
MX
0
LINE
8
0
62
2
10
7000.0
20
5171
11
7040.0
21
5171
0
LINE
8
0
62
2
10
7040.0
20
5171
11
7040.0
21
5193
0
LINE
8
0
62
2
10
7040.0
20
5193
11
7000.0
21
5193
0
LINE
8
0
62
2
10
7000.0
20
5193
11
7000.0
21
5171
0
TEXT
8
0
62
2
10
7007.0
20
5177
40
14
1
VSD
0
TEXT
8
0
62
2
10
6992.0
20
5083
40
18
1
MX001
0
TEXT
8
0
62
2
10
6998.0
20
5057
40
16
1
75
0
LINE
8
0
62
2
10
7182.0
20
5352
11
7198.0
21
5372
0
LINE
8
0
62
2
10
7190.0
20
5370
11
7190.0
21
5180
0
CIRCLE
8
0
62
2
10
7190.0
20
5135
40
22
0
TEXT
8
0
62
2
10
7178.0
20
5127
40
18
1
P
0
LINE
8
0
62
2
10
7170.0
20
5171
11
7210.0
21
5171
0
LINE
8
0
62
2
10
7210.0
20
5171
11
7210.0
21
5193
0
LINE
8
0
62
2
10
7210.0
20
5193
11
7170.0
21
5193
0
LINE
8
0
62
2
10
7170.0
20
5193
11
7170.0
21
5171
0
TEXT
8
0
62
2
10
7177.0
20
5177
40
14
1
VSD
0
TEXT
8
0
62
2
10
7162.0
20
5083
40
18
1
PP002
0
TEXT
8
0
62
2
10
7168.0
20
5057
40
16
1
55
0
LINE
8
0
62
2
10
7352.0
20
5352
11
7368.0
21
5372
0
LINE
8
0
62
2
10
7360.0
20
5370
11
7360.0
21
5180
0
CIRCLE
8
0
62
2
10
7360.0
20
5135
40
22
0
TEXT
8
0
62
2
10
7344.0
20
5127
40
18
1
MX
0
LINE
8
0
62
2
10
7340.0
20
5171
11
7380.0
21
5171
0
LINE
8
0
62
2
10
7380.0
20
5171
11
7380.0
21
5193
0
LINE
8
0
62
2
10
7380.0
20
5193
11
7340.0
21
5193
0
LINE
8
0
62
2
10
7340.0
20
5193
11
7340.0
21
5171
0
TEXT
8
0
62
2
10
7347.0
20
5177
40
14
1
VSD
0
TEXT
8
0
62
2
10
7332.0
20
5083
40
18
1
MX099
0
TEXT
8
0
62
2
10
7338.0
20
5057
40
16
1
55
0
LINE
8
0
62
2
10
7522.0
20
5352
11
7538.0
21
5372
0
LINE
8
0
62
2
10
7530.0
20
5370
11
7530.0
21
5180
0
CIRCLE
8
0
62
2
10
7530.0
20
5135
40
22
0
TEXT
8
0
62
2
10
7518.0
20
5127
40
18
1
C
0
LINE
8
0
62
2
10
7510.0
20
5171
11
7550.0
21
5171
0
LINE
8
0
62
2
10
7550.0
20
5171
11
7550.0
21
5193
0
LINE
8
0
62
2
10
7550.0
20
5193
11
7510.0
21
5193
0
LINE
8
0
62
2
10
7510.0
20
5193
11
7510.0
21
5171
0
TEXT
8
0
62
2
10
7517.0
20
5177
40
14
1
VSD
0
TEXT
8
0
62
2
10
7502.0
20
5083
40
18
1
CP001
0
TEXT
8
0
62
2
10
7508.0
20
5057
40
16
1
110
0
LINE
8
0
62
2
10
7692.0
20
5352
11
7708.0
21
5372
0
LINE
8
0
62
2
10
7700.0
20
5370
11
7700.0
21
5180
0
CIRCLE
8
0
62
2
10
7700.0
20
5135
40
22
0
TEXT
8
0
62
2
10
7688.0
20
5127
40
18
1
C
0
LINE
8
0
62
2
10
7680.0
20
5171
11
7720.0
21
5171
0
LINE
8
0
62
2
10
7720.0
20
5171
11
7720.0
21
5193
0
LINE
8
0
62
2
10
7720.0
20
5193
11
7680.0
21
5193
0
LINE
8
0
62
2
10
7680.0
20
5193
11
7680.0
21
5171
0
TEXT
8
0
62
2
10
7687.0
20
5177
40
14
1
VSD
0
TEXT
8
0
62
2
10
7672.0
20
5083
40
18
1
CP002
0
TEXT
8
0
62
2
10
7678.0
20
5057
40
16
1
22
0
LINE
8
0
62
2
10
7862.0
20
5352
11
7878.0
21
5372
0
LINE
8
0
62
2
10
7870.0
20
5370
11
7870.0
21
5180
0
LINE
8
0
62
2
10
7842.0
20
5113
11
7898.0
21
5113
0
LINE
8
0
62
2
10
7898.0
20
5113
11
7898.0
21
5157
0
LINE
8
0
62
2
10
7898.0
20
5157
11
7842.0
21
5157
0
LINE
8
0
62
2
10
7842.0
20
5157
11
7842.0
21
5113
0
TEXT
8
0
62
2
10
7858.0
20
5127
40
22
1
PK
0
TEXT
8
0
62
2
10
7842.0
20
5083
40
18
1
PK001
0
TEXT
8
0
62
2
10
7848.0
20
5057
40
16
1
90
0
LINE
8
0
62
2
10
8032.0
20
5352
11
8048.0
21
5372
0
LINE
8
0
62
2
10
8040.0
20
5370
11
8040.0
21
5180
0
CIRCLE
8
0
62
2
10
8040.0
20
5135
40
22
0
TEXT
8
0
62
2
10
8028.0
20
5127
40
18
1
P
0
LINE
8
0
62
2
10
8020.0
20
5171
11
8060.0
21
5171
0
LINE
8
0
62
2
10
8060.0
20
5171
11
8060.0
21
5193
0
LINE
8
0
62
2
10
8060.0
20
5193
11
8020.0
21
5193
0
LINE
8
0
62
2
10
8020.0
20
5193
11
8020.0
21
5171
0
TEXT
8
0
62
2
10
8027.0
20
5177
40
14
1
VSD
0
TEXT
8
0
62
2
10
8012.0
20
5083
40
18
1
PP003
0
TEXT
8
0
62
2
10
8018.0
20
5057
40
16
1
75
0
LINE
8
0
62
2
10
8202.0
20
5352
11
8218.0
21
5372
0
LINE
8
0
62
2
10
8210.0
20
5370
11
8210.0
21
5180
0
CIRCLE
8
0
62
2
10
8210.0
20
5135
40
22
0
TEXT
8
0
62
2
10
8198.0
20
5127
40
18
1
C
0
LINE
8
0
62
2
10
8190.0
20
5171
11
8230.0
21
5171
0
LINE
8
0
62
2
10
8230.0
20
5171
11
8230.0
21
5193
0
LINE
8
0
62
2
10
8230.0
20
5193
11
8190.0
21
5193
0
LINE
8
0
62
2
10
8190.0
20
5193
11
8190.0
21
5171
0
TEXT
8
0
62
2
10
8197.0
20
5177
40
14
1
VSD
0
TEXT
8
0
62
2
10
8182.0
20
5083
40
18
1
CP003
0
TEXT
8
0
62
2
10
8188.0
20
5057
40
16
1
22
0
LINE
8
0
62
2
10
8372.0
20
5352
11
8388.0
21
5372
0
LINE
8
0
62
2
10
8380.0
20
5370
11
8380.0
21
5180
0
CIRCLE
8
0
62
2
10
8380.0
20
5135
40
22
0
TEXT
8
0
62
2
10
8368.0
20
5127
40
18
1
C
0
LINE
8
0
62
2
10
8360.0
20
5171
11
8400.0
21
5171
0
LINE
8
0
62
2
10
8400.0
20
5171
11
8400.0
21
5193
0
LINE
8
0
62
2
10
8400.0
20
5193
11
8360.0
21
5193
0
LINE
8
0
62
2
10
8360.0
20
5193
11
8360.0
21
5171
0
TEXT
8
0
62
2
10
8367.0
20
5177
40
14
1
VSD
0
TEXT
8
0
62
2
10
8352.0
20
5083
40
18
1
CP004
0
TEXT
8
0
62
2
10
8358.0
20
5057
40
16
1
90
0
LINE
8
0
62
2
10
8542.0
20
5352
11
8558.0
21
5372
0
LINE
8
0
62
2
10
8550.0
20
5370
11
8550.0
21
5180
0
CIRCLE
8
0
62
2
10
8550.0
20
5135
40
22
0
TEXT
8
0
62
2
10
8538.0
20
5127
40
18
1
P
0
LINE
8
0
62
2
10
8530.0
20
5171
11
8570.0
21
5171
0
LINE
8
0
62
2
10
8570.0
20
5171
11
8570.0
21
5193
0
LINE
8
0
62
2
10
8570.0
20
5193
11
8530.0
21
5193
0
LINE
8
0
62
2
10
8530.0
20
5193
11
8530.0
21
5171
0
TEXT
8
0
62
2
10
8537.0
20
5177
40
14
1
VSD
0
TEXT
8
0
62
2
10
8522.0
20
5083
40
18
1
PP004
0
TEXT
8
0
62
2
10
8528.0
20
5057
40
16
1
37
0
LINE
8
0
62
2
10
8712.0
20
5352
11
8728.0
21
5372
0
LINE
8
0
62
2
10
8720.0
20
5370
11
8720.0
21
5180
0
CIRCLE
8
0
62
2
10
8720.0
20
5135
40
22
0
TEXT
8
0
62
2
10
8704.0
20
5127
40
18
1
MX
0
LINE
8
0
62
2
10
8700.0
20
5171
11
8740.0
21
5171
0
LINE
8
0
62
2
10
8740.0
20
5171
11
8740.0
21
5193
0
LINE
8
0
62
2
10
8740.0
20
5193
11
8700.0
21
5193
0
LINE
8
0
62
2
10
8700.0
20
5193
11
8700.0
21
5171
0
TEXT
8
0
62
2
10
8707.0
20
5177
40
14
1
VSD
0
TEXT
8
0
62
2
10
8692.0
20
5083
40
18
1
MX099
0
TEXT
8
0
62
2
10
8698.0
20
5057
40
16
1
55
0
LINE
8
0
62
2
10
8882.0
20
5352
11
8898.0
21
5372
0
LINE
8
0
62
2
10
8890.0
20
5370
11
8890.0
21
5180
0
CIRCLE
8
0
62
2
10
8890.0
20
5135
40
22
0
TEXT
8
0
62
2
10
8874.0
20
5127
40
18
1
MX
0
LINE
8
0
62
2
10
8870.0
20
5171
11
8910.0
21
5171
0
LINE
8
0
62
2
10
8910.0
20
5171
11
8910.0
21
5193
0
LINE
8
0
62
2
10
8910.0
20
5193
11
8870.0
21
5193
0
LINE
8
0
62
2
10
8870.0
20
5193
11
8870.0
21
5171
0
TEXT
8
0
62
2
10
8877.0
20
5177
40
14
1
VSD
0
TEXT
8
0
62
2
10
8862.0
20
5083
40
18
1
MX004
0
TEXT
8
0
62
2
10
8868.0
20
5057
40
16
1
110
0
LINE
8
0
62
2
10
9052.0
20
5352
11
9068.0
21
5372
0
LINE
8
0
62
2
10
9060.0
20
5370
11
9060.0
21
5180
0
LINE
8
0
62
2
10
9032.0
20
5113
11
9088.0
21
5113
0
LINE
8
0
62
2
10
9088.0
20
5113
11
9088.0
21
5157
0
LINE
8
0
62
2
10
9088.0
20
5157
11
9032.0
21
5157
0
LINE
8
0
62
2
10
9032.0
20
5157
11
9032.0
21
5113
0
TEXT
8
0
62
2
10
9048.0
20
5127
40
22
1
PK
0
TEXT
8
0
62
2
10
9032.0
20
5083
40
18
1
PK002
0
TEXT
8
0
62
2
10
9038.0
20
5057
40
16
1
75
0
LINE
8
0
62
2
10
9222.0
20
5352
11
9238.0
21
5372
0
LINE
8
0
62
2
10
9230.0
20
5370
11
9230.0
21
5180
0
LINE
8
0
62
2
10
9202.0
20
5113
11
9258.0
21
5113
0
LINE
8
0
62
2
10
9258.0
20
5113
11
9258.0
21
5157
0
LINE
8
0
62
2
10
9258.0
20
5157
11
9202.0
21
5157
0
LINE
8
0
62
2
10
9202.0
20
5157
11
9202.0
21
5113
0
TEXT
8
0
62
2
10
9218.0
20
5127
40
22
1
PK
0
TEXT
8
0
62
2
10
9202.0
20
5083
40
18
1
PK003
0
TEXT
8
0
62
2
10
9208.0
20
5057
40
16
1
75
0
LINE
8
0
62
2
10
9392.0
20
5352
11
9408.0
21
5372
0
LINE
8
0
62
2
10
9400.0
20
5370
11
9400.0
21
5180
0
CIRCLE
8
0
62
2
10
9400.0
20
5135
40
22
0
TEXT
8
0
62
2
10
9388.0
20
5127
40
18
1
P
0
LINE
8
0
62
2
10
9380.0
20
5171
11
9420.0
21
5171
0
LINE
8
0
62
2
10
9420.0
20
5171
11
9420.0
21
5193
0
LINE
8
0
62
2
10
9420.0
20
5193
11
9380.0
21
5193
0
LINE
8
0
62
2
10
9380.0
20
5193
11
9380.0
21
5171
0
TEXT
8
0
62
2
10
9387.0
20
5177
40
14
1
VSD
0
TEXT
8
0
62
2
10
9372.0
20
5083
40
18
1
PP005
0
TEXT
8
0
62
2
10
9378.0
20
5057
40
16
1
30
0
LINE
8
0
62
2
10
9562.0
20
5352
11
9578.0
21
5372
0
LINE
8
0
62
2
10
9570.0
20
5370
11
9570.0
21
5180
0
CIRCLE
8
0
62
2
10
9570.0
20
5135
40
22
0
TEXT
8
0
62
2
10
9558.0
20
5127
40
18
1
P
0
LINE
8
0
62
2
10
9550.0
20
5171
11
9590.0
21
5171
0
LINE
8
0
62
2
10
9590.0
20
5171
11
9590.0
21
5193
0
LINE
8
0
62
2
10
9590.0
20
5193
11
9550.0
21
5193
0
LINE
8
0
62
2
10
9550.0
20
5193
11
9550.0
21
5171
0
TEXT
8
0
62
2
10
9557.0
20
5177
40
14
1
VSD
0
TEXT
8
0
62
2
10
9542.0
20
5083
40
18
1
PP006
0
TEXT
8
0
62
2
10
9548.0
20
5057
40
16
1
90
0
LINE
8
0
62
2
10
9732.0
20
5352
11
9748.0
21
5372
0
LINE
8
0
62
2
10
9740.0
20
5370
11
9740.0
21
5180
0
CIRCLE
8
0
62
2
10
9740.0
20
5135
40
22
0
TEXT
8
0
62
2
10
9728.0
20
5127
40
18
1
P
0
LINE
8
0
62
2
10
9720.0
20
5171
11
9760.0
21
5171
0
LINE
8
0
62
2
10
9760.0
20
5171
11
9760.0
21
5193
0
LINE
8
0
62
2
10
9760.0
20
5193
11
9720.0
21
5193
0
LINE
8
0
62
2
10
9720.0
20
5193
11
9720.0
21
5171
0
TEXT
8
0
62
2
10
9727.0
20
5177
40
14
1
VSD
0
TEXT
8
0
62
2
10
9712.0
20
5083
40
18
1
PP007
0
TEXT
8
0
62
2
10
9718.0
20
5057
40
16
1
45
0
LINE
8
0
62
7
10
7500
20
6750
11
7500
21
5540
0
LINE
8
0
62
7
10
7500
20
5540
11
8295.0
21
5540
0
LINE
8
0
62
7
10
8295.0
20
5540
11
8295.0
21
5500
0
LINE
8
0
62
3
10
6700
20
3950
11
8360
21
3950
0
LINE
8
0
62
3
10
8360
20
3950
11
8360
21
4250
0
LINE
8
0
62
3
10
8360
20
4250
11
6700
21
4250
0
LINE
8
0
62
3
10
6700
20
4250
11
6700
21
3950
0
TEXT
8
0
62
3
10
6720
20
4215
40
26
1
KPL2-B20-420-LV02-DB02
0
TEXT
8
0
62
3
10
6720
20
4182
40
22
1
DB
0
TEXT
8
0
62
3
10
6720
20
4152
40
20
1
0.4 kV / CAP 150 kW / LOAD 109 kW
0
LINE
8
0
62
5
10
6770
20
4120
11
8290
21
4120
0
LINE
8
0
62
2
10
6842.0
20
4102
11
6858.0
21
4122
0
LINE
8
0
62
2
10
6850.0
20
4120
11
6850.0
21
3930
0
CIRCLE
8
0
62
2
10
6850.0
20
3885
40
22
0
TEXT
8
0
62
2
10
6838.0
20
3877
40
18
1
M
0
TEXT
8
0
62
2
10
6822.0
20
3833
40
18
1
UP001
0
TEXT
8
0
62
2
10
6828.0
20
3807
40
16
1
5.5
0
LINE
8
0
62
2
10
7012.0
20
4102
11
7028.0
21
4122
0
LINE
8
0
62
2
10
7020.0
20
4120
11
7020.0
21
3930
0
CIRCLE
8
0
62
2
10
7020.0
20
3885
40
22
0
LINE
8
0
62
2
10
7005.0
20
3870
11
7035.0
21
3900
0
LINE
8
0
62
2
10
7005.0
20
3900
11
7035.0
21
3870
0
TEXT
8
0
62
2
10
6992.0
20
3833
40
18
1
LP001
0
TEXT
8
0
62
2
10
6998.0
20
3807
40
16
1
3
0
LINE
8
0
62
2
10
7182.0
20
4102
11
7198.0
21
4122
0
LINE
8
0
62
2
10
7190.0
20
4120
11
7190.0
21
3930
0
CIRCLE
8
0
62
2
10
7190.0
20
3885
40
22
0
LINE
8
0
62
2
10
7175.0
20
3870
11
7205.0
21
3900
0
LINE
8
0
62
2
10
7175.0
20
3900
11
7205.0
21
3870
0
TEXT
8
0
62
2
10
7162.0
20
3833
40
18
1
LP002
0
TEXT
8
0
62
2
10
7168.0
20
3807
40
16
1
11
0
LINE
8
0
62
2
10
7352.0
20
4102
11
7368.0
21
4122
0
LINE
8
0
62
2
10
7360.0
20
4120
11
7360.0
21
3930
0
LINE
8
0
62
2
10
7332.0
20
3863
11
7388.0
21
3863
0
LINE
8
0
62
2
10
7388.0
20
3863
11
7388.0
21
3907
0
LINE
8
0
62
2
10
7388.0
20
3907
11
7332.0
21
3907
0
LINE
8
0
62
2
10
7332.0
20
3907
11
7332.0
21
3863
0
TEXT
8
0
62
2
10
7348.0
20
3877
40
22
1
PK
0
TEXT
8
0
62
2
10
7332.0
20
3833
40
18
1
PK005
0
TEXT
8
0
62
2
10
7338.0
20
3807
40
16
1
11
0
LINE
8
0
62
2
10
7522.0
20
4102
11
7538.0
21
4122
0
LINE
8
0
62
2
10
7530.0
20
4120
11
7530.0
21
3930
0
LINE
8
0
62
2
10
7502.0
20
3863
11
7558.0
21
3863
0
LINE
8
0
62
2
10
7558.0
20
3863
11
7558.0
21
3907
0
LINE
8
0
62
2
10
7558.0
20
3907
11
7502.0
21
3907
0
LINE
8
0
62
2
10
7502.0
20
3907
11
7502.0
21
3863
0
TEXT
8
0
62
2
10
7518.0
20
3877
40
22
1
PK
0
TEXT
8
0
62
2
10
7502.0
20
3833
40
18
1
PK006
0
TEXT
8
0
62
2
10
7508.0
20
3807
40
16
1
1.5
0
LINE
8
0
62
2
10
7692.0
20
4102
11
7708.0
21
4122
0
LINE
8
0
62
2
10
7700.0
20
4120
11
7700.0
21
3930
0
CIRCLE
8
0
62
2
10
7700.0
20
3885
40
22
0
TEXT
8
0
62
2
10
7688.0
20
3877
40
18
1
M
0
TEXT
8
0
62
2
10
7672.0
20
3833
40
18
1
UP002
0
TEXT
8
0
62
2
10
7678.0
20
3807
40
16
1
15
0
LINE
8
0
62
2
10
7862.0
20
4102
11
7878.0
21
4122
0
LINE
8
0
62
2
10
7870.0
20
4120
11
7870.0
21
3930
0
LINE
8
0
62
2
10
7842.0
20
3863
11
7898.0
21
3863
0
LINE
8
0
62
2
10
7898.0
20
3863
11
7898.0
21
3907
0
LINE
8
0
62
2
10
7898.0
20
3907
11
7842.0
21
3907
0
LINE
8
0
62
2
10
7842.0
20
3907
11
7842.0
21
3863
0
TEXT
8
0
62
2
10
7858.0
20
3877
40
22
1
PK
0
TEXT
8
0
62
2
10
7842.0
20
3833
40
18
1
PK007
0
TEXT
8
0
62
2
10
7848.0
20
3807
40
16
1
37
0
LINE
8
0
62
2
10
8032.0
20
4102
11
8048.0
21
4122
0
LINE
8
0
62
2
10
8040.0
20
4120
11
8040.0
21
3930
0
LINE
8
0
62
2
10
8012.0
20
3863
11
8068.0
21
3863
0
LINE
8
0
62
2
10
8068.0
20
3863
11
8068.0
21
3907
0
LINE
8
0
62
2
10
8068.0
20
3907
11
8012.0
21
3907
0
LINE
8
0
62
2
10
8012.0
20
3907
11
8012.0
21
3863
0
TEXT
8
0
62
2
10
8028.0
20
3877
40
22
1
PK
0
TEXT
8
0
62
2
10
8012.0
20
3833
40
18
1
PK008
0
TEXT
8
0
62
2
10
8018.0
20
3807
40
16
1
22
0
LINE
8
0
62
2
10
8202.0
20
4102
11
8218.0
21
4122
0
LINE
8
0
62
2
10
8210.0
20
4120
11
8210.0
21
3930
0
LINE
8
0
62
2
10
8182.0
20
3863
11
8238.0
21
3863
0
LINE
8
0
62
2
10
8238.0
20
3863
11
8238.0
21
3907
0
LINE
8
0
62
2
10
8238.0
20
3907
11
8182.0
21
3907
0
LINE
8
0
62
2
10
8182.0
20
3907
11
8182.0
21
3863
0
TEXT
8
0
62
2
10
8198.0
20
3877
40
22
1
PK
0
TEXT
8
0
62
2
10
8182.0
20
3833
40
18
1
PK009
0
TEXT
8
0
62
2
10
8188.0
20
3807
40
16
1
3
0
LINE
8
0
62
7
10
8300
20
6750
11
8300
21
4290
0
LINE
8
0
62
7
10
8300
20
4290
11
7530.0
21
4290
0
LINE
8
0
62
7
10
7530.0
20
4290
11
7530.0
21
4250
0
TEXT
8
0
62
7
10
13900
20
7800
40
34
1
AREA C30
0
LINE
8
0
62
7
10
10800
20
8340
11
10800
21
7600
0
CIRCLE
8
0
62
4
10
10800
20
7515
40
28
0
CIRCLE
8
0
62
4
10
10800
20
7475
40
28
0
LINE
8
0
62
7
10
10800
20
7580
11
10800
21
7543
0
LINE
8
0
62
7
10
10800
20
7447
11
10800
21
7380
0
TEXT
8
0
62
7
10
10845
20
7535
40
30
1
KPL2-C30-430-TR03
0
TEXT
8
0
62
7
10
10845
20
7500
40
24
1
6.6 / 0.4 kV
0
TEXT
8
0
62
7
10
10845
20
7470
40
24
1
1500 kVA
0
LINE
8
0
62
7
10
10800
20
7380
11
10800
21
7100
0
LINE
8
0
62
3
10
12400
20
6600
11
15000
21
6600
0
LINE
8
0
62
3
10
15000
20
6600
11
15000
21
6900
0
LINE
8
0
62
3
10
15000
20
6900
11
12400
21
6900
0
LINE
8
0
62
3
10
12400
20
6900
11
12400
21
6600
0
TEXT
8
0
62
3
10
12420
20
6855
40
26
1
KPL2-C30-430-LV03-SWBD03
0
TEXT
8
0
62
3
10
12420
20
6825
40
22
1
LV SWITCHBOARD
0
TEXT
8
0
62
3
10
12420
20
6795
40
20
1
0.4 kV / CAP 900 kW / LOAD 500 kW
0
LINE
8
0
62
5
10
12480
20
6750
11
14920
21
6750
0
LINE
8
0
62
7
10
10800
20
7100
11
10800
21
6750
0
LINE
8
0
62
3
10
12100
20
5200
11
14780
21
5200
0
LINE
8
0
62
3
10
14780
20
5200
11
14780
21
5500
0
LINE
8
0
62
3
10
14780
20
5500
11
12100
21
5500
0
LINE
8
0
62
3
10
12100
20
5500
11
12100
21
5200
0
TEXT
8
0
62
3
10
12120
20
5465
40
26
1
KPL2-C30-430-LV03-MCC05
0
TEXT
8
0
62
3
10
12120
20
5432
40
22
1
MCC
0
TEXT
8
0
62
3
10
12120
20
5402
40
20
1
0.4 kV / CAP 500 kW / LOAD 430.5 kW
0
LINE
8
0
62
5
10
12170
20
5370
11
14710
21
5370
0
LINE
8
0
62
2
10
12242.0
20
5352
11
12258.0
21
5372
0
LINE
8
0
62
2
10
12250.0
20
5370
11
12250.0
21
5180
0
CIRCLE
8
0
62
2
10
12250.0
20
5135
40
22
0
TEXT
8
0
62
2
10
12234.0
20
5127
40
18
1
MX
0
LINE
8
0
62
2
10
12230.0
20
5171
11
12270.0
21
5171
0
LINE
8
0
62
2
10
12270.0
20
5171
11
12270.0
21
5193
0
LINE
8
0
62
2
10
12270.0
20
5193
11
12230.0
21
5193
0
LINE
8
0
62
2
10
12230.0
20
5193
11
12230.0
21
5171
0
TEXT
8
0
62
2
10
12237.0
20
5177
40
14
1
VSD
0
TEXT
8
0
62
2
10
12222.0
20
5083
40
18
1
MX001
0
TEXT
8
0
62
2
10
12228.0
20
5057
40
16
1
45
0
LINE
8
0
62
2
10
12412.0
20
5352
11
12428.0
21
5372
0
LINE
8
0
62
2
10
12420.0
20
5370
11
12420.0
21
5180
0
CIRCLE
8
0
62
2
10
12420.0
20
5135
40
22
0
TEXT
8
0
62
2
10
12408.0
20
5127
40
18
1
P
0
LINE
8
0
62
2
10
12400.0
20
5171
11
12440.0
21
5171
0
LINE
8
0
62
2
10
12440.0
20
5171
11
12440.0
21
5193
0
LINE
8
0
62
2
10
12440.0
20
5193
11
12400.0
21
5193
0
LINE
8
0
62
2
10
12400.0
20
5193
11
12400.0
21
5171
0
TEXT
8
0
62
2
10
12407.0
20
5177
40
14
1
VSD
0
TEXT
8
0
62
2
10
12392.0
20
5083
40
18
1
PP001
0
TEXT
8
0
62
2
10
12398.0
20
5057
40
16
1
37
0
LINE
8
0
62
2
10
12582.0
20
5352
11
12598.0
21
5372
0
LINE
8
0
62
2
10
12590.0
20
5370
11
12590.0
21
5180
0
CIRCLE
8
0
62
2
10
12590.0
20
5135
40
22
0
TEXT
8
0
62
2
10
12578.0
20
5127
40
18
1
C
0
LINE
8
0
62
2
10
12570.0
20
5171
11
12610.0
21
5171
0
LINE
8
0
62
2
10
12610.0
20
5171
11
12610.0
21
5193
0
LINE
8
0
62
2
10
12610.0
20
5193
11
12570.0
21
5193
0
LINE
8
0
62
2
10
12570.0
20
5193
11
12570.0
21
5171
0
TEXT
8
0
62
2
10
12577.0
20
5177
40
14
1
VSD
0
TEXT
8
0
62
2
10
12562.0
20
5083
40
18
1
CP001
0
TEXT
8
0
62
2
10
12568.0
20
5057
40
16
1
1.5
0
LINE
8
0
62
2
10
12752.0
20
5352
11
12768.0
21
5372
0
LINE
8
0
62
2
10
12760.0
20
5370
11
12760.0
21
5180
0
CIRCLE
8
0
62
2
10
12760.0
20
5135
40
22
0
TEXT
8
0
62
2
10
12748.0
20
5127
40
18
1
F
0
TEXT
8
0
62
2
10
12732.0
20
5083
40
18
1
FN001
0
TEXT
8
0
62
2
10
12738.0
20
5057
40
16
1
MISSING
0
LINE
8
0
62
2
10
12922.0
20
5352
11
12938.0
21
5372
0
LINE
8
0
62
2
10
12930.0
20
5370
11
12930.0
21
5180
0
CIRCLE
8
0
62
2
10
12930.0
20
5135
40
22
0
TEXT
8
0
62
2
10
12914.0
20
5127
40
18
1
MX
0
LINE
8
0
62
2
10
12910.0
20
5171
11
12950.0
21
5171
0
LINE
8
0
62
2
10
12950.0
20
5171
11
12950.0
21
5193
0
LINE
8
0
62
2
10
12950.0
20
5193
11
12910.0
21
5193
0
LINE
8
0
62
2
10
12910.0
20
5193
11
12910.0
21
5171
0
TEXT
8
0
62
2
10
12917.0
20
5177
40
14
1
VSD
0
TEXT
8
0
62
2
10
12902.0
20
5083
40
18
1
MX002
0
TEXT
8
0
62
2
10
12908.0
20
5057
40
16
1
45
0
LINE
8
0
62
2
10
13092.0
20
5352
11
13108.0
21
5372
0
LINE
8
0
62
2
10
13100.0
20
5370
11
13100.0
21
5180
0
CIRCLE
8
0
62
2
10
13100.0
20
5135
40
22
0
TEXT
8
0
62
2
10
13088.0
20
5127
40
18
1
F
0
TEXT
8
0
62
2
10
13072.0
20
5083
40
18
1
FN002
0
TEXT
8
0
62
2
10
13078.0
20
5057
40
16
1
5.5
0
LINE
8
0
62
2
10
13262.0
20
5352
11
13278.0
21
5372
0
LINE
8
0
62
2
10
13270.0
20
5370
11
13270.0
21
5180
0
LINE
8
0
62
2
10
13236.0
20
5135
11
13246.0
21
5151
0
LINE
8
0
62
2
10
13246.0
20
5151
11
13256.0
21
5119
0
LINE
8
0
62
2
10
13256.0
20
5119
11
13266.0
21
5151
0
LINE
8
0
62
2
10
13266.0
20
5151
11
13276.0
21
5119
0
LINE
8
0
62
2
10
13276.0
20
5119
11
13286.0
21
5151
0
LINE
8
0
62
2
10
13286.0
20
5151
11
13296.0
21
5119
0
LINE
8
0
62
2
10
13296.0
20
5119
11
13306.0
21
5135
0
TEXT
8
0
62
2
10
13242.0
20
5083
40
18
1
HT001
0
TEXT
8
0
62
2
10
13248.0
20
5057
40
16
1
37
0
LINE
8
0
62
2
10
13432.0
20
5352
11
13448.0
21
5372
0
LINE
8
0
62
2
10
13440.0
20
5370
11
13440.0
21
5180
0
CIRCLE
8
0
62
2
10
13440.0
20
5135
40
22
0
TEXT
8
0
62
2
10
13428.0
20
5127
40
18
1
C
0
LINE
8
0
62
2
10
13420.0
20
5171
11
13460.0
21
5171
0
LINE
8
0
62
2
10
13460.0
20
5171
11
13460.0
21
5193
0
LINE
8
0
62
2
10
13460.0
20
5193
11
13420.0
21
5193
0
LINE
8
0
62
2
10
13420.0
20
5193
11
13420.0
21
5171
0
TEXT
8
0
62
2
10
13427.0
20
5177
40
14
1
VSD
0
TEXT
8
0
62
2
10
13412.0
20
5083
40
18
1
CP002
0
TEXT
8
0
62
2
10
13418.0
20
5057
40
16
1
45
0
LINE
8
0
62
2
10
13602.0
20
5352
11
13618.0
21
5372
0
LINE
8
0
62
2
10
13610.0
20
5370
11
13610.0
21
5180
0
LINE
8
0
62
2
10
13582.0
20
5113
11
13638.0
21
5113
0
LINE
8
0
62
2
10
13638.0
20
5113
11
13638.0
21
5157
0
LINE
8
0
62
2
10
13638.0
20
5157
11
13582.0
21
5157
0
LINE
8
0
62
2
10
13582.0
20
5157
11
13582.0
21
5113
0
TEXT
8
0
62
2
10
13598.0
20
5127
40
22
1
PK
0
TEXT
8
0
62
2
10
13582.0
20
5083
40
18
1
PK001
0
TEXT
8
0
62
2
10
13588.0
20
5057
40
16
1
11
0
LINE
8
0
62
2
10
13772.0
20
5352
11
13788.0
21
5372
0
LINE
8
0
62
2
10
13780.0
20
5370
11
13780.0
21
5180
0
LINE
8
0
62
2
10
13746.0
20
5135
11
13756.0
21
5151
0
LINE
8
0
62
2
10
13756.0
20
5151
11
13766.0
21
5119
0
LINE
8
0
62
2
10
13766.0
20
5119
11
13776.0
21
5151
0
LINE
8
0
62
2
10
13776.0
20
5151
11
13786.0
21
5119
0
LINE
8
0
62
2
10
13786.0
20
5119
11
13796.0
21
5151
0
LINE
8
0
62
2
10
13796.0
20
5151
11
13806.0
21
5119
0
LINE
8
0
62
2
10
13806.0
20
5119
11
13816.0
21
5135
0
TEXT
8
0
62
2
10
13752.0
20
5083
40
18
1
HT002
0
TEXT
8
0
62
2
10
13758.0
20
5057
40
16
1
55
0
LINE
8
0
62
2
10
13942.0
20
5352
11
13958.0
21
5372
0
LINE
8
0
62
2
10
13950.0
20
5370
11
13950.0
21
5180
0
CIRCLE
8
0
62
2
10
13950.0
20
5135
40
22
0
TEXT
8
0
62
2
10
13938.0
20
5127
40
18
1
F
0
TEXT
8
0
62
2
10
13922.0
20
5083
40
18
1
FN003
0
TEXT
8
0
62
2
10
13928.0
20
5057
40
16
1
11
0
LINE
8
0
62
2
10
14112.0
20
5352
11
14128.0
21
5372
0
LINE
8
0
62
2
10
14120.0
20
5370
11
14120.0
21
5180
0
LINE
8
0
62
2
10
14092.0
20
5113
11
14148.0
21
5113
0
LINE
8
0
62
2
10
14148.0
20
5113
11
14148.0
21
5157
0
LINE
8
0
62
2
10
14148.0
20
5157
11
14092.0
21
5157
0
LINE
8
0
62
2
10
14092.0
20
5157
11
14092.0
21
5113
0
TEXT
8
0
62
2
10
14108.0
20
5127
40
22
1
PK
0
TEXT
8
0
62
2
10
14092.0
20
5083
40
18
1
PK002
0
TEXT
8
0
62
2
10
14098.0
20
5057
40
16
1
45
0
LINE
8
0
62
2
10
14282.0
20
5352
11
14298.0
21
5372
0
LINE
8
0
62
2
10
14290.0
20
5370
11
14290.0
21
5180
0
CIRCLE
8
0
62
2
10
14290.0
20
5135
40
22
0
TEXT
8
0
62
2
10
14278.0
20
5127
40
18
1
F
0
TEXT
8
0
62
2
10
14262.0
20
5083
40
18
1
FN004
0
TEXT
8
0
62
2
10
14268.0
20
5057
40
16
1
55
0
LINE
8
0
62
2
10
14452.0
20
5352
11
14468.0
21
5372
0
LINE
8
0
62
2
10
14460.0
20
5370
11
14460.0
21
5180
0
LINE
8
0
62
2
10
14432.0
20
5113
11
14488.0
21
5113
0
LINE
8
0
62
2
10
14488.0
20
5113
11
14488.0
21
5157
0
LINE
8
0
62
2
10
14488.0
20
5157
11
14432.0
21
5157
0
LINE
8
0
62
2
10
14432.0
20
5157
11
14432.0
21
5113
0
TEXT
8
0
62
2
10
14448.0
20
5127
40
22
1
PK
0
TEXT
8
0
62
2
10
14432.0
20
5083
40
18
1
PK003
0
TEXT
8
0
62
2
10
14438.0
20
5057
40
16
1
30
0
LINE
8
0
62
2
10
14622.0
20
5352
11
14638.0
21
5372
0
LINE
8
0
62
2
10
14630.0
20
5370
11
14630.0
21
5180
0
CIRCLE
8
0
62
2
10
14630.0
20
5135
40
22
0
TEXT
8
0
62
2
10
14618.0
20
5127
40
18
1
F
0
TEXT
8
0
62
2
10
14602.0
20
5083
40
18
1
FN005
0
TEXT
8
0
62
2
10
14608.0
20
5057
40
16
1
7.5
0
LINE
8
0
62
7
10
12900
20
6750
11
12900
21
5540
0
LINE
8
0
62
7
10
12900
20
5540
11
13440.0
21
5540
0
LINE
8
0
62
7
10
13440.0
20
5540
11
13440.0
21
5500
0
LINE
8
0
62
1
6
DASHED
10
4200
20
2700
11
5400
21
2700
0
LINE
8
0
62
1
6
DASHED
10
5400
20
2700
11
5400
21
2940
0
LINE
8
0
62
1
6
DASHED
10
5400
20
2940
11
4200
21
2940
0
LINE
8
0
62
1
6
DASHED
10
4200
20
2940
11
4200
21
2700
0
TEXT
8
0
62
1
10
4220
20
2905
40
24
1
KPL2-X40-440-LV04-MCC09
0
TEXT
8
0
62
1
10
4220
20
2875
40
20
1
SPARE MCC - SLD ONLY
0
TEXT
8
0
62
1
10
4220
20
2845
40
18
1
0.4 kV / CAP 180 kW
0
LINE
8
0
62
3
10
12100
20
3950
11
14610
21
3950
0
LINE
8
0
62
3
10
14610
20
3950
11
14610
21
4250
0
LINE
8
0
62
3
10
14610
20
4250
11
12100
21
4250
0
LINE
8
0
62
3
10
12100
20
4250
11
12100
21
3950
0
TEXT
8
0
62
3
10
12120
20
4215
40
26
1
KPL2-B20-420-LV02-MCC04
0
TEXT
8
0
62
3
10
12120
20
4182
40
22
1
MCC
0
TEXT
8
0
62
3
10
12120
20
4152
40
20
1
0.4 kV / CAP 450 kW / LOAD 384.2 kW
0
LINE
8
0
62
5
10
12170
20
4120
11
14540
21
4120
0
LINE
8
0
62
2
10
12242.0
20
4102
11
12258.0
21
4122
0
LINE
8
0
62
2
10
12250.0
20
4120
11
12250.0
21
3930
0
CIRCLE
8
0
62
2
10
12250.0
20
3885
40
22
0
TEXT
8
0
62
2
10
12238.0
20
3877
40
18
1
C
0
LINE
8
0
62
2
10
12230.0
20
3921
11
12270.0
21
3921
0
LINE
8
0
62
2
10
12270.0
20
3921
11
12270.0
21
3943
0
LINE
8
0
62
2
10
12270.0
20
3943
11
12230.0
21
3943
0
LINE
8
0
62
2
10
12230.0
20
3943
11
12230.0
21
3921
0
TEXT
8
0
62
2
10
12237.0
20
3927
40
14
1
VSD
0
TEXT
8
0
62
2
10
12222.0
20
3833
40
18
1
CP005
0
TEXT
8
0
62
2
10
12228.0
20
3807
40
16
1
55
0
LINE
8
0
62
2
10
12412.0
20
4102
11
12428.0
21
4122
0
LINE
8
0
62
2
10
12420.0
20
4120
11
12420.0
21
3930
0
CIRCLE
8
0
62
2
10
12420.0
20
3885
40
22
0
TEXT
8
0
62
2
10
12404.0
20
3877
40
18
1
MX
0
LINE
8
0
62
2
10
12400.0
20
3921
11
12440.0
21
3921
0
LINE
8
0
62
2
10
12440.0
20
3921
11
12440.0
21
3943
0
LINE
8
0
62
2
10
12440.0
20
3943
11
12400.0
21
3943
0
LINE
8
0
62
2
10
12400.0
20
3943
11
12400.0
21
3921
0
TEXT
8
0
62
2
10
12407.0
20
3927
40
14
1
VSD
0
TEXT
8
0
62
2
10
12392.0
20
3833
40
18
1
MX005
0
TEXT
8
0
62
2
10
12398.0
20
3807
40
16
1
11
0
LINE
8
0
62
2
10
12582.0
20
4102
11
12598.0
21
4122
0
LINE
8
0
62
2
10
12590.0
20
4120
11
12590.0
21
3930
0
LINE
8
0
62
2
10
12556.0
20
3885
11
12566.0
21
3901
0
LINE
8
0
62
2
10
12566.0
20
3901
11
12576.0
21
3869
0
LINE
8
0
62
2
10
12576.0
20
3869
11
12586.0
21
3901
0
LINE
8
0
62
2
10
12586.0
20
3901
11
12596.0
21
3869
0
LINE
8
0
62
2
10
12596.0
20
3869
11
12606.0
21
3901
0
LINE
8
0
62
2
10
12606.0
20
3901
11
12616.0
21
3869
0
LINE
8
0
62
2
10
12616.0
20
3869
11
12626.0
21
3885
0
TEXT
8
0
62
2
10
12562.0
20
3833
40
18
1
HT001
0
TEXT
8
0
62
2
10
12568.0
20
3807
40
16
1
30
0
LINE
8
0
62
2
10
12752.0
20
4102
11
12768.0
21
4122
0
LINE
8
0
62
2
10
12760.0
20
4120
11
12760.0
21
3930
0
LINE
8
0
62
2
10
12732.0
20
3863
11
12788.0
21
3863
0
LINE
8
0
62
2
10
12788.0
20
3863
11
12788.0
21
3907
0
LINE
8
0
62
2
10
12788.0
20
3907
11
12732.0
21
3907
0
LINE
8
0
62
2
10
12732.0
20
3907
11
12732.0
21
3863
0
TEXT
8
0
62
2
10
12748.0
20
3877
40
22
1
PK
0
TEXT
8
0
62
2
10
12732.0
20
3833
40
18
1
PK004
0
TEXT
8
0
62
2
10
12738.0
20
3807
40
16
1
55
0
LINE
8
0
62
2
10
12922.0
20
4102
11
12938.0
21
4122
0
LINE
8
0
62
2
10
12930.0
20
4120
11
12930.0
21
3930
0
CIRCLE
8
0
62
2
10
12930.0
20
3885
40
22
0
TEXT
8
0
62
2
10
12918.0
20
3877
40
18
1
C
0
LINE
8
0
62
2
10
12910.0
20
3921
11
12950.0
21
3921
0
LINE
8
0
62
2
10
12950.0
20
3921
11
12950.0
21
3943
0
LINE
8
0
62
2
10
12950.0
20
3943
11
12910.0
21
3943
0
LINE
8
0
62
2
10
12910.0
20
3943
11
12910.0
21
3921
0
TEXT
8
0
62
2
10
12917.0
20
3927
40
14
1
VSD
0
TEXT
8
0
62
2
10
12902.0
20
3833
40
18
1
CP006
0
TEXT
8
0
62
2
10
12908.0
20
3807
40
16
1
7.5
0
LINE
8
0
62
2
10
13092.0
20
4102
11
13108.0
21
4122
0
LINE
8
0
62
2
10
13100.0
20
4120
11
13100.0
21
3930
0
CIRCLE
8
0
62
2
10
13100.0
20
3885
40
22
0
TEXT
8
0
62
2
10
13088.0
20
3877
40
18
1
C
0
LINE
8
0
62
2
10
13080.0
20
3921
11
13120.0
21
3921
0
LINE
8
0
62
2
10
13120.0
20
3921
11
13120.0
21
3943
0
LINE
8
0
62
2
10
13120.0
20
3943
11
13080.0
21
3943
0
LINE
8
0
62
2
10
13080.0
20
3943
11
13080.0
21
3921
0
TEXT
8
0
62
2
10
13087.0
20
3927
40
14
1
VSD
0
TEXT
8
0
62
2
10
13072.0
20
3833
40
18
1
CP007
0
TEXT
8
0
62
2
10
13078.0
20
3807
40
16
1
3
0
LINE
8
0
62
2
10
13262.0
20
4102
11
13278.0
21
4122
0
LINE
8
0
62
2
10
13270.0
20
4120
11
13270.0
21
3930
0
CIRCLE
8
0
62
2
10
13270.0
20
3885
40
22
0
TEXT
8
0
62
2
10
13254.0
20
3877
40
18
1
MX
0
LINE
8
0
62
2
10
13250.0
20
3921
11
13290.0
21
3921
0
LINE
8
0
62
2
10
13290.0
20
3921
11
13290.0
21
3943
0
LINE
8
0
62
2
10
13290.0
20
3943
11
13250.0
21
3943
0
LINE
8
0
62
2
10
13250.0
20
3943
11
13250.0
21
3921
0
TEXT
8
0
62
2
10
13257.0
20
3927
40
14
1
VSD
0
TEXT
8
0
62
2
10
13242.0
20
3833
40
18
1
MX006
0
TEXT
8
0
62
2
10
13248.0
20
3807
40
16
1
2.2
0
LINE
8
0
62
2
10
13432.0
20
4102
11
13448.0
21
4122
0
LINE
8
0
62
2
10
13440.0
20
4120
11
13440.0
21
3930
0
CIRCLE
8
0
62
2
10
13440.0
20
3885
40
22
0
TEXT
8
0
62
2
10
13428.0
20
3877
40
18
1
F
0
TEXT
8
0
62
2
10
13412.0
20
3833
40
18
1
FN001
0
TEXT
8
0
62
2
10
13418.0
20
3807
40
16
1
3
0
LINE
8
0
62
2
10
13602.0
20
4102
11
13618.0
21
4122
0
LINE
8
0
62
2
10
13610.0
20
4120
11
13610.0
21
3930
0
LINE
8
0
62
2
10
13576.0
20
3885
11
13586.0
21
3901
0
LINE
8
0
62
2
10
13586.0
20
3901
11
13596.0
21
3869
0
LINE
8
0
62
2
10
13596.0
20
3869
11
13606.0
21
3901
0
LINE
8
0
62
2
10
13606.0
20
3901
11
13616.0
21
3869
0
LINE
8
0
62
2
10
13616.0
20
3869
11
13626.0
21
3901
0
LINE
8
0
62
2
10
13626.0
20
3901
11
13636.0
21
3869
0
LINE
8
0
62
2
10
13636.0
20
3869
11
13646.0
21
3885
0
TEXT
8
0
62
2
10
13582.0
20
3833
40
18
1
HT002
0
TEXT
8
0
62
2
10
13588.0
20
3807
40
16
1
75
0
LINE
8
0
62
2
10
13772.0
20
4102
11
13788.0
21
4122
0
LINE
8
0
62
2
10
13780.0
20
4120
11
13780.0
21
3930
0
LINE
8
0
62
2
10
13746.0
20
3885
11
13756.0
21
3901
0
LINE
8
0
62
2
10
13756.0
20
3901
11
13766.0
21
3869
0
LINE
8
0
62
2
10
13766.0
20
3869
11
13776.0
21
3901
0
LINE
8
0
62
2
10
13776.0
20
3901
11
13786.0
21
3869
0
LINE
8
0
62
2
10
13786.0
20
3869
11
13796.0
21
3901
0
LINE
8
0
62
2
10
13796.0
20
3901
11
13806.0
21
3869
0
LINE
8
0
62
2
10
13806.0
20
3869
11
13816.0
21
3885
0
TEXT
8
0
62
2
10
13752.0
20
3833
40
18
1
HT003
0
TEXT
8
0
62
2
10
13758.0
20
3807
40
16
1
4
0
LINE
8
0
62
2
10
13942.0
20
4102
11
13958.0
21
4122
0
LINE
8
0
62
2
10
13950.0
20
4120
11
13950.0
21
3930
0
CIRCLE
8
0
62
2
10
13950.0
20
3885
40
22
0
TEXT
8
0
62
2
10
13938.0
20
3877
40
18
1
C
0
LINE
8
0
62
2
10
13930.0
20
3921
11
13970.0
21
3921
0
LINE
8
0
62
2
10
13970.0
20
3921
11
13970.0
21
3943
0
LINE
8
0
62
2
10
13970.0
20
3943
11
13930.0
21
3943
0
LINE
8
0
62
2
10
13930.0
20
3943
11
13930.0
21
3921
0
TEXT
8
0
62
2
10
13937.0
20
3927
40
14
1
VSD
0
TEXT
8
0
62
2
10
13922.0
20
3833
40
18
1
CP008
0
TEXT
8
0
62
2
10
13928.0
20
3807
40
16
1
18.5
0
LINE
8
0
62
2
10
14112.0
20
4102
11
14128.0
21
4122
0
LINE
8
0
62
2
10
14120.0
20
4120
11
14120.0
21
3930
0
LINE
8
0
62
2
10
14086.0
20
3885
11
14096.0
21
3901
0
LINE
8
0
62
2
10
14096.0
20
3901
11
14106.0
21
3869
0
LINE
8
0
62
2
10
14106.0
20
3869
11
14116.0
21
3901
0
LINE
8
0
62
2
10
14116.0
20
3901
11
14126.0
21
3869
0
LINE
8
0
62
2
10
14126.0
20
3869
11
14136.0
21
3901
0
LINE
8
0
62
2
10
14136.0
20
3901
11
14146.0
21
3869
0
LINE
8
0
62
2
10
14146.0
20
3869
11
14156.0
21
3885
0
TEXT
8
0
62
2
10
14092.0
20
3833
40
18
1
HT004
0
TEXT
8
0
62
2
10
14098.0
20
3807
40
16
1
30
0
LINE
8
0
62
2
10
14282.0
20
4102
11
14298.0
21
4122
0
LINE
8
0
62
2
10
14290.0
20
4120
11
14290.0
21
3930
0
CIRCLE
8
0
62
2
10
14290.0
20
3885
40
22
0
TEXT
8
0
62
2
10
14278.0
20
3877
40
18
1
C
0
LINE
8
0
62
2
10
14270.0
20
3921
11
14310.0
21
3921
0
LINE
8
0
62
2
10
14310.0
20
3921
11
14310.0
21
3943
0
LINE
8
0
62
2
10
14310.0
20
3943
11
14270.0
21
3943
0
LINE
8
0
62
2
10
14270.0
20
3943
11
14270.0
21
3921
0
TEXT
8
0
62
2
10
14277.0
20
3927
40
14
1
VSD
0
TEXT
8
0
62
2
10
14262.0
20
3833
40
18
1
CP009
0
TEXT
8
0
62
2
10
14268.0
20
3807
40
16
1
75
0
LINE
8
0
62
2
10
14452.0
20
4102
11
14468.0
21
4122
0
LINE
8
0
62
2
10
14460.0
20
4120
11
14460.0
21
3930
0
LINE
8
0
62
2
10
14426.0
20
3885
11
14436.0
21
3901
0
LINE
8
0
62
2
10
14436.0
20
3901
11
14446.0
21
3869
0
LINE
8
0
62
2
10
14446.0
20
3869
11
14456.0
21
3901
0
LINE
8
0
62
2
10
14456.0
20
3901
11
14466.0
21
3869
0
LINE
8
0
62
2
10
14466.0
20
3869
11
14476.0
21
3901
0
LINE
8
0
62
2
10
14476.0
20
3901
11
14486.0
21
3869
0
LINE
8
0
62
2
10
14486.0
20
3869
11
14496.0
21
3885
0
TEXT
8
0
62
2
10
14432.0
20
3833
40
18
1
HT005
0
TEXT
8
0
62
2
10
14438.0
20
3807
40
16
1
15
0
LINE
8
0
62
1
10
13700
20
6750
11
13700
21
4290
0
LINE
8
0
62
1
10
13700
20
4290
11
13355.0
21
4290
0
LINE
8
0
62
1
10
13355.0
20
4290
11
13355.0
21
4250
0
TEXT
8
0
62
1
10
12300
20
3830
40
18
1
WRONG PARENT - should be under AREA B20
0
LINE
8
0
62
3
10
14600
20
6400
11
16900
21
6400
0
LINE
8
0
62
3
10
16900
20
6400
11
16900
21
6680
0
LINE
8
0
62
3
10
16900
20
6680
11
14600
21
6680
0
LINE
8
0
62
3
10
14600
20
6680
11
14600
21
6400
0
TEXT
8
0
62
3
10
14620
20
6635
40
24
1
KPL2-C30-430-MV01-SWBD03
0
TEXT
8
0
62
3
10
14620
20
6605
40
20
1
MV SWITCHBOARD
0
TEXT
8
0
62
3
10
14620
20
6575
40
18
1
6.6 kV / CAP 4000 kW
0
LINE
8
0
62
5
10
14680
20
6535
11
16820
21
6535
0
LINE
8
0
62
7
10
11450
20
8340
11
11450
21
6780
0
LINE
8
0
62
7
10
11450
20
6780
11
15750
21
6780
0
LINE
8
0
62
7
10
15750
20
6780
11
15750
21
6680
0
LINE
8
0
62
3
10
14750
20
5200
11
16150
21
5200
0
LINE
8
0
62
3
10
16150
20
5200
11
16150
21
5500
0
LINE
8
0
62
3
10
16150
20
5500
11
14750
21
5500
0
LINE
8
0
62
3
10
14750
20
5500
11
14750
21
5200
0
TEXT
8
0
62
3
10
14770
20
5465
40
26
1
KPL2-C30-430-MV01-SWG01
0
TEXT
8
0
62
3
10
14770
20
5432
40
22
1
SWITCHGEAR
0
TEXT
8
0
62
3
10
14770
20
5402
40
20
1
6.6 kV / CAP 3800 kW / LOAD 3360 kW
0
LINE
8
0
62
5
10
14820
20
5370
11
16080
21
5370
0
LINE
8
0
62
2
10
15102.0
20
5352
11
15118.0
21
5372
0
LINE
8
0
62
2
10
15110.0
20
5370
11
15110.0
21
5180
0
CIRCLE
8
0
62
2
10
15110.0
20
5135
40
22
0
TEXT
8
0
62
2
10
15098.0
20
5127
40
18
1
M
0
TEXT
8
0
62
2
10
15082.0
20
5083
40
18
1
MV001
0
TEXT
8
0
62
2
10
15088.0
20
5057
40
16
1
800
0
LINE
8
0
62
2
10
15272.0
20
5352
11
15288.0
21
5372
0
LINE
8
0
62
2
10
15280.0
20
5370
11
15280.0
21
5180
0
CIRCLE
8
0
62
2
10
15280.0
20
5135
40
22
0
TEXT
8
0
62
2
10
15268.0
20
5127
40
18
1
M
0
TEXT
8
0
62
2
10
15252.0
20
5083
40
18
1
MV002
0
TEXT
8
0
62
2
10
15258.0
20
5057
40
16
1
800
0
LINE
8
0
62
2
10
15442.0
20
5352
11
15458.0
21
5372
0
LINE
8
0
62
2
10
15450.0
20
5370
11
15450.0
21
5180
0
CIRCLE
8
0
62
2
10
15450.0
20
5135
40
22
0
TEXT
8
0
62
2
10
15438.0
20
5127
40
18
1
M
0
TEXT
8
0
62
2
10
15422.0
20
5083
40
18
1
MV003
0
TEXT
8
0
62
2
10
15428.0
20
5057
40
16
1
560
0
LINE
8
0
62
2
10
15612.0
20
5352
11
15628.0
21
5372
0
LINE
8
0
62
2
10
15620.0
20
5370
11
15620.0
21
5180
0
CIRCLE
8
0
62
2
10
15620.0
20
5135
40
22
0
TEXT
8
0
62
2
10
15608.0
20
5127
40
18
1
M
0
TEXT
8
0
62
2
10
15592.0
20
5083
40
18
1
MV004
0
TEXT
8
0
62
2
10
15598.0
20
5057
40
16
1
400
0
LINE
8
0
62
2
10
15782.0
20
5352
11
15798.0
21
5372
0
LINE
8
0
62
2
10
15790.0
20
5370
11
15790.0
21
5180
0
CIRCLE
8
0
62
2
10
15790.0
20
5135
40
22
0
TEXT
8
0
62
2
10
15778.0
20
5127
40
18
1
M
0
TEXT
8
0
62
2
10
15762.0
20
5083
40
18
1
MV005
0
TEXT
8
0
62
2
10
15768.0
20
5057
40
16
1
800
0
LINE
8
0
62
7
10
15750
20
6535
11
15750
21
5540
0
LINE
8
0
62
7
10
15750
20
5540
11
15450.0
21
5540
0
LINE
8
0
62
7
10
15450.0
20
5540
11
15450.0
21
5500
0
TEXT
8
0
62
1
10
14200
20
2700
40
28
1
UNVERIFIED BRANCH
0
CIRCLE
8
0
62
4
10
14600
20
2585
40
28
0
CIRCLE
8
0
62
4
10
14600
20
2545
40
28
0
LINE
8
0
62
7
10
14600
20
2650
11
14600
21
2613
0
LINE
8
0
62
7
10
14600
20
2517
11
14600
21
2450
0
TEXT
8
0
62
7
10
14645
20
2605
40
30
1
KPL2-Z90-999-TR99
0
TEXT
8
0
62
7
10
14645
20
2570
40
24
1
6.6 / 0.4 kV
0
TEXT
8
0
62
7
10
14645
20
2540
40
24
1
250 kVA
0
LINE
8
0
62
1
10
14600
20
2450
11
14600
21
2220
0
LINE
8
0
62
1
6
DASHED
10
14200
20
1920
11
16000
21
1920
0
LINE
8
0
62
1
6
DASHED
10
16000
20
1920
11
16000
21
2160
0
LINE
8
0
62
1
6
DASHED
10
16000
20
2160
11
14200
21
2160
0
LINE
8
0
62
1
6
DASHED
10
14200
20
2160
11
14200
21
1920
0
TEXT
8
0
62
1
10
14220
20
2125
40
22
1
KPL2-Z90-999-LV99-SWBD99
0
TEXT
8
0
62
1
10
14220
20
2095
40
18
1
UNVERIFIED LV SWITCHBOARD
0
TEXT
8
0
62
1
10
14220
20
2065
40
16
1
0.4 kV / CAP 80 kW
0
LINE
8
0
62
1
10
14280
20
2020
11
15920
21
2020
0
LINE
8
0
62
1
10
14600
20
2220
11
14600
21
2020
0
LINE
8
0
62
3
10
14300
20
600
11
15700
21
600
0
LINE
8
0
62
3
10
15700
20
600
11
15700
21
900
0
LINE
8
0
62
3
10
15700
20
900
11
14300
21
900
0
LINE
8
0
62
3
10
14300
20
900
11
14300
21
600
0
TEXT
8
0
62
3
10
14320
20
865
40
26
1
KPL2-Z90-999-LV99-MCC99
0
TEXT
8
0
62
3
10
14320
20
832
40
22
1
MCC
0
TEXT
8
0
62
3
10
14320
20
802
40
20
1
0.4 kV / CAP 60 kW / LOAD 18.5 kW
0
LINE
8
0
62
5
10
14370
20
770
11
15630
21
770
0
LINE
8
0
62
2
10
14992.0
20
752
11
15008.0
21
772
0
LINE
8
0
62
2
10
15000.0
20
770
11
15000.0
21
580
0
CIRCLE
8
0
62
2
10
15000.0
20
535
40
22
0
TEXT
8
0
62
2
10
14988.0
20
527
40
18
1
P
0
LINE
8
0
62
2
10
14980.0
20
571
11
15020.0
21
571
0
LINE
8
0
62
2
10
15020.0
20
571
11
15020.0
21
593
0
LINE
8
0
62
2
10
15020.0
20
593
11
14980.0
21
593
0
LINE
8
0
62
2
10
14980.0
20
593
11
14980.0
21
571
0
TEXT
8
0
62
2
10
14987.0
20
577
40
14
1
VSD
0
TEXT
8
0
62
2
10
14972.0
20
483
40
18
1
PP001
0
TEXT
8
0
62
2
10
14978.0
20
457
40
16
1
18.5
0
LINE
8
0
62
1
10
14800
20
2020
11
14800
21
940
0
LINE
8
0
62
1
10
14800
20
940
11
15000.0
21
940
0
LINE
8
0
62
1
10
15000.0
20
940
11
15000.0
21
900
0
ENDSEC
0
EOF
